<?xml version="1.0" standalone="no"?>
<!DOCTYPE svg PUBLIC "-//W3C//DTD SVG 1.1//EN" "http://www.w3.org/Graphics/SVG/1.1/DTD/svg11.dtd" >
<svg xmlns="http://www.w3.org/2000/svg" xmlns:xlink="http://www.w3.org/1999/xlink" version="1.1">
<metadata>
Created by FontForge 20161003 at Thu Oct 11 08:01:52 2018
 By www-data
&#60; info@fontfont.de &#62; Copyright Fred Smeijers, 1997. Published by FontShop International.  FontFont Release 20
</metadata>
<defs>
<font id="QuadraatSans-Bold" horiz-adv-x="500" >
  <font-face 
    font-family="QuadraatSans"
    font-weight="700"
    font-stretch="normal"
    units-per-em="1000"
    panose-1="2 0 8 6 6 0 0 2 0 4"
    ascent="800"
    descent="-200"
    x-height="455"
    cap-height="642"
    bbox="-184 -302 1160 886"
    underline-thickness="20"
    underline-position="-166"
    unicode-range="U+0020-FB02"
  />
<missing-glyph 
 />
    <glyph glyph-name="fi" unicode="fi" horiz-adv-x="557" 
d="M441 574l-109 56h-32q-12 0 -27.5 -5t-29 -18t-22.5 -37t-9 -61v-58h180l93 40v-491h-123v363h-149v-363h-123v361h-86l27 90h59v28q0 55 16 99.5t46 75.5t72.5 47.5t95.5 16.5q103 0 179 -49z" />
    <glyph glyph-name="fl" unicode="fl" horiz-adv-x="562" 
d="M365 636l-63 -1h-13q-11 0 -24.5 -5.5t-25.5 -19.5t-20 -38.5t-8 -62.5v-58h154v185zM365 0v363h-153v-363h-123v361h-84l26 90h58v28q0 51 14 95t42 76t69 50t95 18q29 0 60 -5t59 -14l60 21v-720h-123z" />
    <glyph glyph-name=".notdef" 
 />
    <glyph glyph-name=".null" horiz-adv-x="0" 
 />
    <glyph glyph-name="nonmarkingreturn" horiz-adv-x="207" 
 />
    <glyph glyph-name="space" unicode=" " horiz-adv-x="207" 
 />
    <glyph glyph-name="space" unicode="&#xa0;" horiz-adv-x="207" 
 />
    <glyph glyph-name="numbersign" unicode="#" horiz-adv-x="659" 
d="M296 382l-36 -96h104l38 96h-106zM623 382h-131l-38 -96h153l-25 -77h-155l-85 -234l-79 23l74 211h-103l-85 -235l-79 29l77 206h-137l25 77h138l33 96h-144l21 77h152l86 223l74 -30l-72 -193h105l82 222l79 -28l-71 -194h130z" />
    <glyph glyph-name="dollar" unicode="$" 
d="M320 170q0 26 -14.5 42t-40.5 30l-29 -152q35 4 59.5 28t24.5 52zM276 547q-38 -4 -61.5 -24.5t-23.5 -50.5q0 -25 16 -43t40 -32zM460 183q0 -44 -17.5 -80t-48.5 -62t-72 -40t-89 -14h-17l-16 -81h-48l16 83q-28 2 -55 6.5t-55 15.5l-13 133q45 -29 77.5 -40t65.5 -13
l33 173l-65 32q-45 22 -73 64t-28 96q0 45 17.5 81t49 61.5t75 39t94.5 13.5h5l11 56h47l-11 -60q32 -5 60.5 -14t46.5 -19v-136q-39 30 -68.5 46t-58.5 21l-32 -169l55 -26q22 -11 42.5 -27t36.5 -37t25.5 -47t9.5 -56z" />
    <glyph glyph-name="percent" unicode="%" horiz-adv-x="804" 
d="M267 466q0 59 -20.5 91.5t-58.5 32.5q-37 0 -57.5 -32.5t-20.5 -91.5q0 -60 20.5 -92t57.5 -32q38 0 58.5 32t20.5 92zM694 166q0 60 -20.5 92t-58.5 32q-37 0 -57.5 -32t-20.5 -92q0 -59 20.5 -91t57.5 -32q38 0 58.5 32t20.5 91zM353 462q0 -83 -44.5 -130.5
t-120.5 -47.5q-77 0 -120.5 48t-43.5 134t43.5 134t120.5 48q78 0 121.5 -48.5t43.5 -137.5zM355 -21l-76 18l169 665l79 -21zM780 162q0 -82 -44 -130t-121 -48t-120.5 48.5t-43.5 133.5q0 86 43.5 134.5t120.5 48.5q79 0 122 -49t43 -138z" />
    <glyph glyph-name="ampersand" unicode="&#x26;" horiz-adv-x="686" 
d="M369 101q-58 49 -100 89t-74 80q-20 -19 -33 -39.5t-13 -41.5q0 -34 12.5 -55.5t32 -34t43.5 -17t46 -4.5q24 0 46.5 5.5t39.5 17.5zM324 507q0 26 -16.5 41.5t-53.5 15.5q-27 0 -47 -15.5t-20 -41.5q0 -13 2 -25t8 -25t16 -28.5t26 -34.5q16 10 31 21.5t27 24.5
t19.5 29.5t7.5 37.5zM541 -27q-12 7 -20.5 10.5t-19.5 10.5t-27 18t-39 30q-39 -33 -82.5 -45t-99.5 -12q-50 0 -92 12t-72 35t-47 55.5t-17 74.5q0 38 9.5 65t25.5 47t36.5 35t42.5 29q-36 45 -52.5 80.5t-16.5 75.5q0 37 14.5 67t40.5 51t60.5 32t75.5 11q89 0 135 -40.5
t46 -105.5q0 -30 -11 -55.5t-30.5 -48t-46 -42.5t-57.5 -38q23 -24 40 -41t33 -32.5t33.5 -31.5t41.5 -37q16 14 28.5 40.5t14.5 61.5l-20 90h173l20 -90h-79q-2 -19 -7 -40.5t-13 -43t-20 -41.5t-27 -36q29 -24 51.5 -39.5t45 -27t47.5 -22t59 -25.5z" />
    <glyph glyph-name="quoteright" unicode="&#x2019;" horiz-adv-x="280" 
d="M236 543q0 -37 -27 -86t-94 -103l-50 43q23 21 44 49t26 60q-35 0 -55.5 19.5t-20.5 54.5q0 33 25 53.5t57 20.5q42 0 68.5 -26t26.5 -85z" />
    <glyph glyph-name="parenleft" unicode="(" horiz-adv-x="331" 
d="M348 618q-48 -32 -83 -72.5t-58 -87t-34 -97.5t-11 -103q0 -105 45.5 -199t139.5 -161l-91 -29q-61 31 -102.5 75.5t-66.5 96.5t-35.5 108t-10.5 109t12 109.5t38 109t67 97t98 73.5z" />
    <glyph glyph-name="parenright" unicode=")" horiz-adv-x="331" 
d="M289 258q0 -53 -12.5 -110t-39 -109.5t-67 -97t-96.5 -72.5l-91 29q94 67 139.5 161t45.5 199q0 52 -11 103t-34 97.5t-58 87t-83 72.5l92 29q61 -31 102.5 -75.5t66.5 -96.5t35.5 -108t10.5 -109z" />
    <glyph glyph-name="asterisk" unicode="*" horiz-adv-x="480" 
d="M310 461l119 -132l-88 -59l-99 145l-100 -145l-88 59l119 132l-180 43l33 95l173 -63l-12 171h109l-12 -171l172 63l34 -95z" />
    <glyph glyph-name="plus" unicode="+" horiz-adv-x="560" 
d="M397 212h-68v-210l-106 -20l8 164v66h-81l-147 -8l21 99h207v163l107 35l-9 -105v-93h58l160 4v-105z" />
    <glyph glyph-name="comma" unicode="," horiz-adv-x="280" 
d="M232 9q0 -37 -27 -86t-94 -103l-50 43q23 21 44 49t26 60q-35 0 -55.5 19.5t-20.5 54.5q0 33 25 53.5t57 20.5q42 0 68.5 -30t26.5 -81z" />
    <glyph glyph-name="hyphen" unicode="-" horiz-adv-x="330" 
d="M48 186l-7 114l241 27l7 -113z" />
    <glyph glyph-name="hyphen" unicode="&#xad;" horiz-adv-x="330" 
d="M48 186l-7 114l241 27l7 -113z" />
    <glyph glyph-name="period" unicode="." horiz-adv-x="280" 
d="M232 63q0 -16 -7 -30t-19 -24.5t-27.5 -16.5t-32.5 -6q-34 0 -57.5 22.5t-23.5 53.5q0 33 25.5 55t60.5 22q34 0 57.5 -22t23.5 -54z" />
    <glyph glyph-name="slash" unicode="/" horiz-adv-x="290" 
d="M117 -121l-97 21l145 766l97 -25z" />
    <glyph glyph-name="zero" unicode="0" 
d="M343 229q0 73 -21 114t-74 41q-50 0 -71 -41.5t-21 -113.5q0 -73 21.5 -113.5t72.5 -40.5t72 40.5t21 113.5zM471 229q0 -50 -13 -94t-40.5 -77t-69 -52t-98.5 -19t-98.5 19t-68.5 52t-40.5 77t-13.5 94t13 94t40.5 77t69 52.5t98.5 19.5t98.5 -19.5t69 -52.5t40.5 -77
t13 -94z" />
    <glyph glyph-name="one" unicode="1" horiz-adv-x="393" 
d="M150 0v344l-106 -33v68l238 104v-483h-132z" />
    <glyph glyph-name="two" unicode="2" 
d="M437 0h-377l-24 52l108 87q52 42 86.5 80t34.5 78q0 34 -24.5 48.5t-60.5 14.5q-28 0 -59 -7.5t-63 -19.5l23 118q30 8 63.5 15t68.5 7q89 0 138.5 -32t49.5 -108q0 -32 -13.5 -59t-34.5 -51t-48 -44.5t-54 -38.5l-50 -33h262z" />
    <glyph glyph-name="three" unicode="3" 
d="M436 -14q0 -49 -21 -89t-58 -68.5t-87 -44t-108 -15.5q-26 0 -60.5 5.5t-60.5 17.5v59h111q73 0 112.5 33.5t39.5 91.5q0 38 -29 63.5t-92 25.5h-103l26 103h110q15 10 30.5 23.5t28 30t21 34.5t8.5 38q0 29 -19.5 47.5t-71.5 18.5q-26 0 -57.5 -4.5t-82.5 -25.5l34 123
q19 4 34.5 7.5t30.5 6.5t31 4.5t36 1.5q54 0 89.5 -13t56.5 -35t29 -51t8 -60q0 -24 -12.5 -49t-31 -46.5t-41 -38.5t-42.5 -26q31 -4 57 -19.5t45 -38t29 -51t10 -59.5z" />
    <glyph glyph-name="four" unicode="4" 
d="M259 320l-153 -230h153v230zM478 -13h-96v-189l-123 -39v228h-240l-20 88l250 365l133 40v-390h122z" />
    <glyph glyph-name="five" unicode="5" 
d="M404 347h-214l-10 -123q53 -6 100 -20.5t82.5 -40.5t56 -64.5t20.5 -91.5q0 -60 -20.5 -104.5t-56.5 -74t-85 -44.5t-106 -15q-10 0 -25 1t-31.5 3.5t-33 6.5t-29.5 11v60h102q83 0 118 38t35 107q0 35 -18.5 57.5t-50 36t-73.5 20.5t-89 10l22 335h336z" />
    <glyph glyph-name="six" unicode="6" 
d="M390 618q-59 0 -102 -24t-71.5 -69t-42 -108.5t-13.5 -141.5q0 -94 28 -147t73 -53q44 0 66.5 40t22.5 112q0 73 -33.5 110t-90.5 37h-16v48q16 14 39 21t40 7q48 0 83 -16t57 -44.5t32.5 -66.5t10.5 -83q0 -56 -13.5 -102t-41.5 -80t-69.5 -52.5t-96.5 -18.5
q-50 0 -89.5 22t-68 61.5t-43.5 94.5t-15 120q0 93 21.5 170.5t64 133t105 86.5t145.5 31q13 0 29 -2t31.5 -6t28.5 -9.5t20 -12.5v-58h-91z" />
    <glyph glyph-name="seven" unicode="7" 
d="M174 -235l-100 38l272 535h-304v117h413l21 -56z" />
    <glyph glyph-name="eight" unicode="8" 
d="M340 167q0 18 -8.5 34t-21 30t-26 25t-22.5 19l-37 29q-36 -29 -55.5 -62t-19.5 -73q0 -52 27.5 -77.5t71.5 -25.5q45 0 68 27.5t23 73.5zM339 545q0 37 -21.5 63t-63.5 26q-40 0 -59 -25.5t-19 -65.5q0 -52 54 -92l41 -31q29 23 48.5 54t19.5 71zM468 172q0 -33 -13 -66
t-40 -59.5t-69 -43t-100 -16.5q-100 0 -157 45t-57 126q0 33 12.5 60t32.5 49.5t45.5 41.5t52.5 37l-34 27q-19 15 -35 31t-27.5 35.5t-18 43t-6.5 54.5q0 34 15 65t42.5 54.5t65 37.5t82.5 14q43 0 79.5 -10.5t62 -30t40 -47t14.5 -61.5q0 -32 -11.5 -59t-30.5 -49
t-43.5 -40.5t-49.5 -33.5l45 -34q18 -14 36.5 -30.5t33 -37.5t24 -46.5t9.5 -56.5z" />
    <glyph glyph-name="nine" unicode="9" 
d="M476 164q0 -82 -17.5 -154t-55 -125.5t-96.5 -84.5t-143 -31q-30 0 -53 6.5t-45 16.5v66h80q57 0 96 22.5t63 63t34 97t10 124.5q0 48 -7 88t-21 69.5t-35 46t-49 16.5q-33 0 -58.5 -34.5t-25.5 -109.5q0 -74 28 -117.5t88 -43.5h25l1 -47q-19 -12 -38 -20t-45 -8
q-47 0 -81.5 18.5t-57 49.5t-33 71.5t-10.5 84.5q0 56 16.5 101.5t45 77t66 48.5t79.5 17q73 0 120 -27.5t73 -71.5t36 -99.5t10 -110.5z" />
    <glyph glyph-name="colon" unicode=":" horiz-adv-x="280" 
d="M232 63q0 -16 -7 -30t-19 -24.5t-27.5 -16.5t-32.5 -6q-34 0 -57.5 22.5t-23.5 53.5q0 33 25.5 55t60.5 22q34 0 57.5 -22t23.5 -54zM232 310q0 -16 -7 -30t-19 -24.5t-27.5 -16.5t-32.5 -6q-34 0 -57.5 22t-23.5 54t25.5 54.5t60.5 22.5q34 0 57.5 -22.5t23.5 -53.5z
" />
    <glyph glyph-name="semicolon" unicode=";" horiz-adv-x="280" 
d="M232 9q0 -37 -27 -86t-94 -103l-50 43q23 21 44 49t26 60q-35 0 -55.5 19.5t-20.5 54.5q0 33 25 53.5t57 20.5q42 0 68.5 -30t26.5 -81zM232 308q0 -17 -7 -31t-19 -25t-27.5 -17t-32.5 -6q-34 0 -57.5 23t-23.5 55q0 34 25.5 56.5t60.5 22.5q34 0 57.5 -23t23.5 -55z
" />
    <glyph glyph-name="semicolon" unicode="&#x37e;" horiz-adv-x="280" 
d="M232 9q0 -37 -27 -86t-94 -103l-50 43q23 21 44 49t26 60q-35 0 -55.5 19.5t-20.5 54.5q0 33 25 53.5t57 20.5q42 0 68.5 -30t26.5 -81zM232 308q0 -17 -7 -31t-19 -25t-27.5 -17t-32.5 -6q-34 0 -57.5 23t-23.5 55q0 34 25.5 56.5t60.5 22.5q34 0 57.5 -23t23.5 -55z
" />
    <glyph glyph-name="less" unicode="&#x3c;" horiz-adv-x="560" 
d="M452 -23l-118 74l-320 170l444 280l52 -96l-122 -68l-178 -107l303 -157z" />
    <glyph glyph-name="equal" unicode="=" horiz-adv-x="560" 
d="M406 108h-248l-147 -7l21 97l334 -3l189 3v-97zM405 285h-247l-146 -7l17 93h366l160 3v-98z" />
    <glyph glyph-name="greater" unicode="&#x3e;" horiz-adv-x="560" 
d="M240 51l-118 -74l-61 96l303 157l-179 107l-121 68l52 96l444 -279z" />
    <glyph glyph-name="question" unicode="?" horiz-adv-x="371" 
d="M252 63q0 -16 -7 -30t-19 -24.5t-27.5 -16.5t-32.5 -6q-34 0 -57.5 22.5t-23.5 53.5q0 33 25.5 55t60.5 22q34 0 57.5 -22t23.5 -54zM363 517q0 -23 -7.5 -43t-17 -36t-20 -27t-16.5 -16l-66 -56q-5 -5 -11 -9.5t-6 -16.5q0 -11 21 -21.5t72 -17.5l-64 -79q-62 7 -98 28
t-36 68q0 15 5 30t26 35l54 53q15 15 23.5 27.5t12.5 23t5 19.5t1 17q0 17 -10.5 29t-29.5 20.5t-44 14.5t-53 10l-89 13l64 109l126 -26q71 -14 114.5 -50.5t43.5 -98.5z" />
    <glyph glyph-name="at" unicode="@" horiz-adv-x="799" 
d="M443 207l-67 -19q-21 -6 -37 -21t-16 -45q0 -7 2.5 -15.5t8 -15.5t14 -12t20.5 -5q29 0 44 4.5t31 9.5v119zM803 278q0 -84 -28.5 -139.5t-69.5 -88t-87.5 -45.5t-82.5 -13q-7 0 -20.5 2t-28.5 8t-27 17.5t-16 29.5q-18 -21 -49.5 -39t-61.5 -18q-49 0 -84 29.5t-35 82.5
q0 34 14 58t35 40t44.5 25.5t42.5 14.5l94 24v57q0 26 -8 42.5t-28 16.5t-42 -14t-40.5 -31.5t-31.5 -33t-16 -18.5l-60 57q18 22 41 42t51 35.5t60 25t68 9.5q61 0 92 -27.5t30 -77.5l-5 -293h8q26 0 50.5 11t44 35t31.5 63t12 95q0 62 -18.5 114t-54.5 89t-88.5 57.5
t-120.5 20.5q-76 0 -134 -25t-97 -68.5t-59 -103.5t-20 -129q0 -79 28 -146.5t73 -117t102.5 -77.5t116.5 -28v-52q-86 0 -164.5 27.5t-138 81.5t-95 133.5t-35.5 184.5q0 85 31.5 158t87.5 126.5t133 83.5t168 30q85 0 156 -24t122.5 -68.5t80.5 -107.5t29 -141z" />
    <glyph glyph-name="A" unicode="A" horiz-adv-x="565" 
d="M426 0l-39 110h-222l-39 -110h-136l226 584l-24 59h149l234 -643h-149zM277 420l-77 -212h152z" />
    <glyph glyph-name="B" unicode="B" horiz-adv-x="587" 
d="M407 188q0 44 -35.5 63t-98.5 19h-62v-165q11 -3 32 -6.5t47 -3.5q57 0 87 23t30 70zM381 464q0 34 -23.5 57t-82.5 23h-64v-179h123q7 5 15.5 15t15.5 23.5t11.5 29t4.5 31.5zM551 180q0 -47 -18.5 -83t-51.5 -60.5t-78.5 -37.5t-100.5 -13q-30 0 -62 2.5t-62.5 6.5
t-57.5 9.5t-46 11.5v613q47 10 102 16t112 6q51 0 94 -11t74.5 -32.5t49 -53t17.5 -71.5q0 -54 -26.5 -88.5t-62.5 -53.5q55 -20 86 -60.5t31 -100.5z" />
    <glyph glyph-name="C" unicode="C" horiz-adv-x="625" 
d="M571 37q-41 -29 -90.5 -39t-108.5 -10q-79 0 -143 24.5t-109 68.5t-69.5 104t-24.5 131q0 73 26 135t72 107t109.5 70t138.5 25q63 0 112 -10.5t87 -30.5v-135q-48 32 -91.5 46t-100.5 14q-44 0 -82.5 -15.5t-66.5 -43.5t-44 -67t-16 -87q0 -44 15 -83t41.5 -69t63 -47.5
t79.5 -17.5q28 0 53 2.5t49.5 9.5t49 19.5t50.5 32.5v-134z" />
    <glyph glyph-name="D" unicode="D" horiz-adv-x="658" 
d="M490 317q0 109 -60 168.5t-172 59.5h-47v-440l34 -6t37 -3q49 0 87.5 17t65.5 47t41 70t14 87zM634 318q0 -73 -25 -134t-71 -104.5t-111 -68t-145 -24.5q-60 0 -109.5 8.5t-98.5 20.5v614q26 4 50 8t49 7t51.5 5t58.5 2q82 0 147 -22t110.5 -64.5t69.5 -104.5t24 -143z
" />
    <glyph glyph-name="E" unicode="E" 
d="M438 0h-364v642h390l-37 -109h-216v-154h210l-36 -108h-174v-159h267z" />
    <glyph glyph-name="F" unicode="F" horiz-adv-x="480" 
d="M433 533h-222v-163h216l-37 -111h-179v-259h-137v642h396z" />
    <glyph glyph-name="G" unicode="G" horiz-adv-x="671" 
d="M522 16q-24 -12 -59.5 -21t-83.5 -9q-84 0 -149.5 24t-111 67.5t-69 104t-23.5 134.5q0 73 26 135t72.5 107t111.5 70t143 25q63 0 120 -12.5t94 -34.5v-141q-52 37 -107.5 54.5t-109.5 17.5q-44 0 -82 -15.5t-65.5 -43.5t-43 -67t-15.5 -87q0 -47 14 -88t41 -71.5
t65.5 -48t87.5 -17.5q23 0 45 3t41 8v127h-124l37 109h220v-360z" />
    <glyph glyph-name="H" unicode="H" horiz-adv-x="673" 
d="M462 0v276h-251v-276h-137v642h137v-253h251v253h137v-642h-137z" />
    <glyph glyph-name="I" unicode="I" horiz-adv-x="285" 
d="M74 0v642h137v-642h-137z" />
    <glyph glyph-name="J" unicode="J" horiz-adv-x="285" 
d="M211 11q0 -110 -56 -158t-165 -48l-55 118h55q45 0 64.5 19.5t19.5 68.5v631h137v-631z" />
    <glyph glyph-name="K" unicode="K" horiz-adv-x="628" 
d="M74 0v642h137v-642h-137zM461 0l-238 321l230 321h151l-229 -302l253 -340h-167z" />
    <glyph glyph-name="L" unicode="L" horiz-adv-x="442" 
d="M400 0h-326v642h137v-530h231z" />
    <glyph glyph-name="M" unicode="M" horiz-adv-x="785" 
d="M574 0v404l-186 -245l-187 251v-410h-122v565l-60 77h170l216 -284l221 284h85v-642h-137z" />
    <glyph glyph-name="N" unicode="N" horiz-adv-x="683" 
d="M533 0l-325 406v-406h-122v559l-67 83h174l293 -370v370h123v-642h-76z" />
    <glyph glyph-name="O" unicode="O" horiz-adv-x="692" 
d="M522 320q0 49 -12 89.5t-34.5 69t-55 44.5t-74.5 16t-75 -16t-55.5 -44.5t-34 -69t-11.5 -89.5t11.5 -89.5t34 -69t55.5 -44.5t75 -16t74.5 16t55 44.5t34.5 69t12 89.5zM666 320q0 -75 -23 -136.5t-65 -105t-101 -67.5t-131 -24t-131 24t-101 67.5t-65 105t-23 136.5
t23 136.5t65 105t101 67.5t131 24t131 -24t101 -67.5t65 -105t23 -136.5z" />
    <glyph glyph-name="P" unicode="P" horiz-adv-x="557" 
d="M537 431q0 -45 -16 -84.5t-43 -69t-64 -46.5t-79 -17q-16 0 -38 4t-34 10v63h9q67 0 93.5 38.5t26.5 102.5q0 57 -31.5 85t-100.5 28h-49v-545h-137v626q32 11 87 18.5t116 7.5q124 0 192 -58t68 -163z" />
    <glyph glyph-name="Q" unicode="Q" horiz-adv-x="694" 
d="M524 320q0 49 -12 89.5t-34.5 69t-55 44.5t-74.5 16t-75 -16t-56 -44.5t-35 -69t-12 -89.5t12 -89.5t35 -69t56 -44.5t75 -16t74.5 16t55 44.5t34.5 69t12 89.5zM481 -158l-108 146q-6 -1 -12 -1h-13q-72 0 -131.5 24t-102 67.5t-65.5 105t-23 136.5t23.5 136.5t65.5 105
t101.5 67.5t131.5 24t131 -24t101 -67.5t65 -105t23 -136.5q0 -52 -13.5 -97.5t-37 -83t-55 -64.5t-67.5 -41l169 -192h-183z" />
    <glyph glyph-name="R" unicode="R" horiz-adv-x="600" 
d="M384 453q0 19 -5.5 36t-20 29.5t-39 19.5t-63.5 7h-45v-205h114q24 19 41.5 47t17.5 66zM432 0l-149 245h-72v-245h-137v630q26 4 48.5 8t46 7t48.5 5t56 2q51 0 96 -11.5t79 -35t54 -59.5t20 -85q0 -34 -11 -62t-28.5 -50t-38 -38t-39.5 -26l195 -285h-168z" />
    <glyph glyph-name="S" unicode="S" horiz-adv-x="494" 
d="M458 183q0 -44 -17.5 -80t-48.5 -62t-72 -40t-89 -14q-46 0 -93 4t-92 20l-13 138q37 -23 84.5 -38.5t107.5 -15.5q19 0 36 6t30 16.5t20 24t7 28.5q0 29 -16.5 45.5t-47.5 30.5l-85 40q-68 32 -97 74t-29 96q0 45 17.5 81t49 61.5t75 39t94.5 13.5q21 0 44 -3.5
t44.5 -8.5t40 -11.5t31.5 -13.5v-130q-25 19 -45.5 31t-39.5 18.5t-37.5 8.5t-37.5 2q-44 0 -72 -19.5t-28 -52.5q0 -28 19 -47.5t48 -32.5l98 -45q22 -10 42.5 -25.5t36.5 -36t25.5 -46.5t9.5 -56z" />
    <glyph glyph-name="T" unicode="T" horiz-adv-x="484" 
d="M468 527h-160v-527h-138v527h-171v115h506z" />
    <glyph glyph-name="U" unicode="U" horiz-adv-x="643" 
d="M577 248q0 -60 -16.5 -108.5t-48.5 -82.5t-79 -52.5t-108 -18.5q-130 0 -194.5 63.5t-64.5 196.5v396h137v-390q0 -72 31 -113t91 -41q35 0 60 10.5t40.5 28.5t22.5 43t7 55v407h122v-394z" />
    <glyph glyph-name="V" unicode="V" horiz-adv-x="547" 
d="M319 5l-114 -17l-215 654h153l134 -439l150 439h130z" />
    <glyph glyph-name="W" unicode="W" horiz-adv-x="861" 
d="M649 6l-114 -22l-107 336l-138 -313l-101 -24l-200 659h143l131 -431l116 262l-54 169h144l137 -434l140 434h129z" />
    <glyph glyph-name="X" unicode="X" horiz-adv-x="545" 
d="M342 345l217 -345h-162l-134 222l-143 -222h-134l212 329l-197 313h163l113 -190l122 190h134z" />
    <glyph glyph-name="Y" unicode="Y" horiz-adv-x="544" 
d="M333 262v-262h-137v271l-210 371h155l140 -250l139 250h138z" />
    <glyph glyph-name="Z" unicode="Z" horiz-adv-x="540" 
d="M495 0h-489l304 533h-274v109h489l-309 -527h318z" />
    <glyph glyph-name="bracketleft" unicode="[" horiz-adv-x="360" 
d="M202 547v-564l154 -24l-11 -84l-255 12v754l255 7l11 -84z" />
    <glyph glyph-name="backslash" unicode="\" horiz-adv-x="290" 
d="M165 -121l-145 762l97 25l145 -766z" />
    <glyph glyph-name="bracketright" unicode="]" horiz-adv-x="360" 
d="M15 -125l-11 84l154 24v564l-154 17l11 84l255 -7v-754z" />
    <glyph glyph-name="asciicircum" unicode="^" horiz-adv-x="450" 
d="M346 533l-123 81l-123 -81l-59 49l182 139l182 -139z" />
    <glyph glyph-name="underscore" unicode="_" horiz-adv-x="483" 
d="M-18 -97v63h519v-63h-519z" />
    <glyph glyph-name="quoteleft" unicode="&#x2018;" horiz-adv-x="280" 
d="M221 429q0 -34 -25 -54.5t-57 -20.5q-42 0 -68.5 26t-26.5 85q0 37 27 86t94 103l50 -43q-23 -20 -44 -48.5t-26 -60.5q35 0 55.5 -19.5t20.5 -53.5z" />
    <glyph glyph-name="a" unicode="a" horiz-adv-x="499" 
d="M293 206l-76 -21q-30 -8 -46.5 -24t-16.5 -38q0 -23 17 -41t51 -18q20 0 38.5 6t32.5 15v121zM463 -1q-21 -7 -40 -10t-31 -3q-27 0 -54.5 12t-36.5 42q-35 -30 -68 -42t-77 -12q-59 0 -89.5 34t-30.5 83q0 33 13.5 57t36 41t50.5 28.5t57 19.5l100 26v64q0 22 -7 36.5
t-26 14.5q-14 0 -26 -3t-26 -10.5t-31 -20.5t-39 -32l-22 -19l-64 78q56 48 112.5 69t119.5 21q75 0 106.5 -32.5t29.5 -91.5l-6 -245q0 -15 5.5 -22t15 -9.5t21 -3t22.5 -1.5z" />
    <glyph glyph-name="b" unicode="b" horiz-adv-x="543" 
d="M379 215q0 32 -7 62t-23.5 53t-42.5 37t-65 14q-14 0 -24.5 -2t-23.5 -7v-273q13 -15 30 -25t36 -10q25 0 47 11.5t38 32t25.5 48t9.5 59.5zM507 246q0 -56 -17 -104t-48.5 -82.5t-76.5 -54t-100 -19.5q-25 0 -56 8t-54 22l-89 -41v703l127 39v-302q10 13 25 23.5t31 18
t32.5 11.5t30.5 4q50 0 86.5 -18t60.5 -49t36 -72t12 -87z" />
    <glyph glyph-name="c" unicode="c" horiz-adv-x="451" 
d="M348 315l-68 74h-8q-20 0 -40 -9.5t-36 -28.5t-26 -48t-10 -67q0 -66 33 -103t90 -37q35 0 63.5 9t54.5 24l-28 -120q-32 -13 -56.5 -18t-58.5 -5q-51 0 -92 17t-70 48t-44.5 74t-15.5 95q0 57 17 103.5t48 79.5t74.5 51.5t95.5 18.5q49 0 88.5 -19t73.5 -71z" />
    <glyph glyph-name="d" unicode="d" horiz-adv-x="542" 
d="M349 310q0 40 -19.5 62t-53.5 22q-18 0 -38 -8t-36.5 -26t-27 -46t-10.5 -68q0 -38 6.5 -69t22.5 -53t42.5 -34t65.5 -12q17 0 27 3t21 8v221zM354 -25v68q-29 -29 -60.5 -42.5t-59.5 -13.5q-97 0 -147.5 62.5t-50.5 169.5q0 58 19.5 105t53 80t77.5 51t92 18
q20 0 34.5 -2.5t36.5 -10.5v224l127 39v-708z" />
    <glyph glyph-name="e" unicode="e" horiz-adv-x="489" 
d="M328 329q0 26 -17 46.5t-46 20.5q-20 0 -37.5 -8.5t-31 -23t-22 -33t-11.5 -38.5l163 6q2 6 2 15.5v14.5zM449 306q0 -14 -1 -33.5t-8 -42.5l-285 -8v-11q0 -21 8 -42.5t23.5 -38t39 -27t55.5 -10.5q45 0 81 11.5t63 27.5l-24 -118q-31 -14 -66.5 -21t-74.5 -7
q-48 0 -89 15t-71 45t-47 74.5t-17 103.5q0 48 14 93t42.5 79.5t72 55.5t102.5 21q81 0 131.5 -42t50.5 -125z" />
    <glyph glyph-name="f" unicode="f" horiz-adv-x="349" 
d="M405 599l-88 35h-23q-29 0 -51.5 -25.5t-22.5 -89.5v-68h113l-32 -90h-80v-361h-127v361h-84l23 90h61v28q0 54 14 98.5t42 75.5t69 48t95 17q34 0 67.5 -6.5t67.5 -22.5z" />
    <glyph glyph-name="g" unicode="g" horiz-adv-x="548" 
d="M379 -69q0 19 -14.5 29.5t-57.5 12.5l-137 6q-9 -8 -15.5 -22.5t-6.5 -30.5q0 -42 29.5 -63t76.5 -21q37 0 61.5 8t38.5 21t19.5 29t5.5 31zM350 319q0 17 -1 33t-6 31q-15 7 -33 11.5t-42 4.5q-47 0 -76.5 -25t-29.5 -69q0 -45 27 -70.5t71 -25.5q23 0 40 9t28 24.5
t16.5 35.5t5.5 41zM521 349h-44q2 -99 -56.5 -153t-161.5 -54q-39 0 -75 10q-5 -4 -11 -12t-6 -20q0 -20 17 -32t55 -12h120q25 0 50.5 -6t46.5 -19.5t34.5 -35t13.5 -52.5q0 -39 -19.5 -73t-56 -59.5t-87.5 -40t-114 -14.5q-37 0 -72 5t-62 18.5t-43.5 36.5t-16.5 59
q0 21 9 37.5t24 29.5t34 22t40 14q-35 9 -52 31.5t-17 48.5q0 29 22.5 51t50.5 35q-22 7 -41.5 21t-33.5 32t-22.5 39t-8.5 42q0 51 18.5 84.5t50 53.5t73.5 28.5t89 8.5q37 0 70.5 -9.5t53.5 -16.5h155z" />
    <glyph glyph-name="h" unicode="h" horiz-adv-x="535" 
d="M342 0v251q0 24 -1 48t-8.5 42.5t-24 30t-47.5 11.5q-17 0 -36 -7.5t-32 -14.5v-361h-127v676l127 42v-305q28 28 63 44t67 16q66 0 106 -36t40 -109v-328h-127z" />
    <glyph glyph-name="i" unicode="i" horiz-adv-x="259" 
d="M213 640q0 -32 -21.5 -51t-53.5 -19q-33 0 -54 19.5t-21 50.5q0 30 21 49.5t54 19.5q32 0 53.5 -19t21.5 -50zM66 0v447l127 34v-481h-127z" />
    <glyph glyph-name="j" unicode="j" horiz-adv-x="263" 
d="M213 640q0 -32 -21.5 -51t-53.5 -19q-33 0 -54 19.5t-21 50.5q0 30 21 49.5t54 19.5q32 0 53.5 -19t21.5 -50zM197 7q0 -107 -57 -163t-175 -57l-36 87q45 5 72.5 13.5t43 23t20.5 35.5t5 51v451l127 31v-472z" />
    <glyph glyph-name="k" unicode="k" horiz-adv-x="514" 
d="M66 0v676l127 43v-719h-127zM358 0q-13 14 -33.5 44t-43.5 66t-45 73t-37 65l155 207h146l-177 -194l183 -261h-148z" />
    <glyph glyph-name="l" unicode="l" horiz-adv-x="259" 
d="M66 0v676l127 43v-719h-127z" />
    <glyph glyph-name="m" unicode="m" horiz-adv-x="809" 
d="M616 0v248q0 24 -1 48t-8.5 42.5t-24 30t-47.5 11.5q-17 0 -34 -4t-29 -12v-364h-128v251q0 24 -1.5 48t-9.5 42.5t-24.5 30t-47.5 11.5q-17 0 -36 -7.5t-32 -14.5v-361h-127v447l127 31v-65q28 28 63 44t67 16q42 0 76 -15t52 -45h10q29 25 66 41t68 16q66 0 107 -36
t41 -109v-325h-127z" />
    <glyph glyph-name="n" unicode="n" horiz-adv-x="535" 
d="M342 0v251q0 24 -1 48t-8.5 42.5t-24 30t-47.5 11.5q-17 0 -36 -6t-32 -13v-364h-127v447l127 31v-65q28 28 63 44t67 16q66 0 106 -36t40 -109v-328h-127z" />
    <glyph glyph-name="o" unicode="o" horiz-adv-x="528" 
d="M360 224q0 166 -98 166q-20 0 -37 -11t-29.5 -31t-20 -48t-7.5 -62q0 -86 25.5 -128t73.5 -42q19 0 36 11t29.5 31.5t20 49t7.5 64.5zM492 252q0 -123 -62.5 -194.5t-189.5 -71.5q-49 0 -87 16t-64 45t-39.5 69.5t-13.5 89.5q0 131 66 199t185 68q49 0 87 -16t64 -45
t40 -70t14 -90z" />
    <glyph glyph-name="p" unicode="p" horiz-adv-x="543" 
d="M379 216q0 34 -7.5 64t-24 52.5t-43 35.5t-63.5 13q-17 0 -27 -2.5t-21 -7.5v-224q0 -42 20.5 -62t54.5 -20q21 0 41 10.5t35.5 30t25 47.5t9.5 63zM507 240q0 -58 -18.5 -105t-50.5 -80t-77 -51t-97 -18q-20 0 -34.5 3t-36.5 11v-195l-127 -39v681l127 37v-68
q29 31 60.5 43.5t61.5 12.5q43 0 78.5 -16t60.5 -46t39 -73t14 -97z" />
    <glyph glyph-name="q" unicode="q" horiz-adv-x="542" 
d="M349 366q-8 8 -25.5 18t-39.5 10q-24 0 -46 -10.5t-38.5 -30.5t-26 -50.5t-9.5 -69.5q0 -73 33.5 -114.5t102.5 -41.5q14 0 25 2t24 7v280zM350 -239v282q-23 -25 -56 -40.5t-65 -15.5q-49 0 -85 18t-60 48.5t-36 71t-12 85.5q0 59 18.5 107.5t50.5 83t76 53.5t95 19
q38 0 66 -7.5t50 -20.5l84 28v-673z" />
    <glyph glyph-name="r" unicode="r" horiz-adv-x="381" 
d="M318 332l-60 39q-22 0 -38 -16.5t-27 -30.5v-324h-127v447l127 29v-96q12 16 25.5 33t27 30t27 21.5t26.5 8.5q32 0 51 -11t34 -29z" />
    <glyph glyph-name="s" unicode="s" horiz-adv-x="453" 
d="M409 134q0 -36 -16 -63.5t-43 -46.5t-63 -28.5t-77 -9.5q-35 0 -75.5 6.5t-92.5 23.5l33 97q29 -15 64.5 -25.5t67.5 -10.5q10 0 22 1t22 5.5t16.5 13t6.5 23.5q0 23 -15.5 34t-39.5 20l-57 21q-23 9 -43.5 20t-36 27t-24.5 37t-9 48q0 42 18.5 70t48 45.5t66.5 24.5
t74 7q28 0 50.5 -3.5t39.5 -8t31 -9t26 -7.5l-33 -92q-20 11 -51.5 21.5t-63.5 10.5q-14 0 -28 -1.5t-24.5 -6t-17 -13t-6.5 -21.5q0 -27 18.5 -37t47.5 -20l51 -18q23 -8 43.5 -18t36 -25.5t24.5 -38t9 -53.5z" />
    <glyph glyph-name="t" unicode="t" horiz-adv-x="358" 
d="M307 364h-98v-218q0 -39 10.5 -49t32.5 -10q10 0 17.5 0.5t16 2t19 4.5t25.5 8l-23 -101q-24 -5 -43.5 -10t-44.5 -5q-71 0 -101.5 35.5t-30.5 110.5v232h-82l20 89h66v92l137 56l-14 -148h126z" />
    <glyph glyph-name="u" unicode="u" horiz-adv-x="536" 
d="M342 -24v74q-21 -23 -52 -43.5t-77 -20.5q-66 0 -106.5 35.5t-40.5 108.5v317l128 29v-299q0 -30 3 -49.5t11 -31.5t22 -16.5t35 -4.5q23 0 42.5 8t34.5 20v344l128 30v-459z" />
    <glyph glyph-name="v" unicode="v" horiz-adv-x="441" 
d="M268 12l-108 -29l-156 472h135l90 -298l96 298h112z" />
    <glyph glyph-name="w" unicode="w" horiz-adv-x="689" 
d="M512 12l-98 -29l-73 225l-94 -197l-81 -28l-162 472h135l96 -298l72 157l-45 141h135l80 -291l96 291h112z" />
    <glyph glyph-name="x" unicode="x" horiz-adv-x="456" 
d="M301 241l154 -241h-149l-89 140l-96 -140h-121l166 220l-149 235h146l85 -132l90 132h118z" />
    <glyph glyph-name="y" unicode="y" horiz-adv-x="438" 
d="M262 0q-16 -42 -34.5 -80.5t-44 -68t-60.5 -47t-84 -17.5l-36 126h52q22 0 40 1.5t31.5 7.5t23.5 18t16 34l-167 481h134l96 -288l97 288h112z" />
    <glyph glyph-name="z" unicode="z" horiz-adv-x="449" 
d="M401 0h-364v61l211 294h-214l30 100h344v-69l-210 -285h227z" />
    <glyph glyph-name="braceleft" unicode="{" horiz-adv-x="369" 
d="M334 -248q-119 0 -170 38t-48 120l7 211q1 24 -3.5 41t-18 28.5t-39 17.5t-66.5 8v77q41 2 66.5 8.5t39 17.5t18 28t3.5 41l-7 192q-3 82 48 120t170 38h32v-84q-47 0 -74 -2.5t-41.5 -13.5t-18.5 -33t-4 -60v-168q0 -45 -12 -74.5t-48 -47.5q37 -17 48.5 -47t11.5 -76
v-187q0 -38 4 -60t18.5 -33t41.5 -13.5t74 -2.5v-84h-32z" />
    <glyph glyph-name="bar" unicode="|" horiz-adv-x="369" 
d="M126 -262v1060h112v-1060h-112z" />
    <glyph glyph-name="braceright" unicode="}" horiz-adv-x="369" 
d="M373 216q-41 -2 -66.5 -8t-39 -17.5t-18 -28.5t-3.5 -41l7 -211q3 -82 -48 -120t-170 -38h-32v84q46 0 73.5 2.5t42 13.5t18.5 33t4 60v187q0 46 11.5 76t48.5 47q-36 18 -48 47.5t-12 74.5v168q0 38 -4 60t-18.5 33t-42 13.5t-73.5 2.5v84h32q119 0 170 -38t48 -120
l-7 -192q-1 -24 3.5 -41t18 -28t39 -17.5t66.5 -8.5v-77z" />
    <glyph glyph-name="asciitilde" unicode="~" horiz-adv-x="450" 
d="M338 555h-36q-16 0 -32.5 7.5t-31.5 16t-28.5 16t-23.5 7.5q-8 0 -19 -9t-22.5 -21t-21 -23.5t-15.5 -15.5l-46 37l97 117h36q16 0 29 -7.5t26 -16t27.5 -16t33.5 -7.5q9 0 20 9t22 21t20.5 23t15.5 16l47 -41z" />
    <glyph glyph-name="exclamdown" unicode="&#xa1;" horiz-adv-x="306" 
d="M71 564q0 32 25.5 54.5t60.5 22.5q34 0 57.5 -22.5t23.5 -53.5q0 -33 -25.5 -55t-60.5 -22t-58 22t-23 54zM103 399l111 21l14 -434h-159z" />
    <glyph glyph-name="cent" unicode="&#xa2;" 
d="M269 411q-60 -7 -93 -48t-33 -111q0 -64 33 -109.5t93 -53.5v322zM461 30q-26 -16 -63.5 -29t-80.5 -17v-158h-48v158q-59 4 -105.5 25t-79 55.5t-50 81t-17.5 100.5q0 56 18 103.5t51 83t79.5 57t103.5 25.5v130h48v-130q43 -4 80.5 -17t63.5 -28v-127q-33 28 -70.5 45
t-73.5 22v-321q35 5 70 21.5t74 47.5v-128z" />
    <glyph glyph-name="sterling" unicode="&#xa3;" 
d="M447 517l-118 67q-35 0 -53.5 -22t-26 -52.5t-8 -63.5t-0.5 -55h158l-51 -96h-108v-12q0 -66 -21 -107.5t-65 -68.5h318v-107h-475v85q46 6 69 28t32.5 52t9.5 64.5v66.5h-96l36 95l60 1v48q0 60 18.5 102t49.5 68t70.5 38t81.5 12q63 0 104 -15.5t74 -38.5z" />
    <glyph glyph-name="fraction" unicode="&#x2044;" horiz-adv-x="200" 
d="M-99 -138l-85 44l482 828l85 -42z" />
    <glyph glyph-name="fraction" unicode="&#x2215;" horiz-adv-x="200" 
d="M-99 -138l-85 44l482 828l85 -42z" />
    <glyph glyph-name="yen" unicode="&#xa5;" 
d="M340 302h164v-47h-187v-69h187v-47h-187v-139h-137v139h-181v47h181v69h-181v47h163l-192 340h155l140 -250l139 250h138z" />
    <glyph glyph-name="florin" unicode="&#x192;" 
d="M496 583l-105 46h-14q-34 0 -52 -25t-26 -59t-9.5 -69.5t-2.5 -56.5h167l-55 -101h-116l-17 -301q-3 -52 -19.5 -96t-46 -76.5t-71 -50.5t-95.5 -18q-42 0 -85.5 13.5t-82.5 36.5l70 103l109 -64h12q14 0 28.5 6t26.5 20t20 37.5t10 59.5l18 330h-124l45 101h84l3 58
q3 52 19.5 96t45.5 76t71 50.5t96 18.5q82 0 160 -39z" />
    <glyph glyph-name="section" unicode="&#xa7;" horiz-adv-x="448" 
d="M398 -29q0 -45 -18 -78t-48 -54.5t-69.5 -32.5t-81.5 -11q-46 0 -86 14t-66 33v138q37 -38 75 -59.5t77 -21.5q36 0 61.5 15t25.5 47q0 26 -17.5 41t-38.5 26l-95 51q-49 26 -72.5 61.5t-23.5 74.5q0 15 5.5 30.5t14.5 29.5t21 25.5t25 18.5l52 -36q-19 -14 -19 -32
q0 -12 3.5 -21.5t12 -18t24 -18t39.5 -21.5l83 -42q28 -14 49.5 -29.5t36.5 -34.5t22.5 -42t7.5 -53zM428 242q0 -31 -19.5 -61t-46.5 -43l-52 35q19 14 19 33q0 12 -3.5 21t-12 17.5t-24 18t-39.5 21.5l-82 42q-28 15 -51.5 30t-40 34t-26 42t-9.5 53q0 45 18 78t48 55
t69.5 33t81.5 11q46 0 86 -14.5t66 -32.5v-139q-37 38 -75 59.5t-77 21.5q-36 0 -61.5 -14.5t-25.5 -46.5q0 -14 6.5 -24t16 -18t21 -14t22.5 -12l95 -51q49 -26 72.5 -61.5t23.5 -73.5z" />
    <glyph glyph-name="currency" unicode="&#xa4;" horiz-adv-x="503" 
d="M461 26q-29 -18 -69 -30.5t-90 -12.5q-104 0 -165.5 50.5t-84.5 132.5h-66v47h58q-1 8 -1.5 16.5t-0.5 16.5q0 9 0.5 18.5t1.5 17.5h-58v47h67q23 84 86.5 135.5t162.5 51.5q50 0 90 -12t69 -29v-122q-39 33 -79 46t-82 13q-49 0 -76.5 -21.5t-43.5 -61.5h166v-47h-177
q-1 -7 -1 -14.5v-15.5q0 -20 3 -39h175v-47h-161q17 -36 43.5 -57.5t71.5 -21.5q21 0 40.5 2.5t38.5 9.5t39 19t43 30v-122z" />
    <glyph glyph-name="quotesingle" unicode="'" horiz-adv-x="227" 
d="M91 388l-79 30l99 239l109 -40z" />
    <glyph glyph-name="quotedblleft" unicode="&#x201c;" 
d="M221 429q0 -34 -25 -54.5t-57 -20.5q-42 0 -68.5 26t-26.5 85q0 37 27 86t94 103l50 -43q-23 -20 -44 -48.5t-26 -60.5q35 0 55.5 -19.5t20.5 -53.5zM441 429q0 -34 -25 -54.5t-57 -20.5q-42 0 -68.5 26t-26.5 85q0 37 27 86t94 103l50 -43q-23 -20 -44 -48.5t-26 -60.5
q35 0 55.5 -19.5t20.5 -53.5z" />
    <glyph glyph-name="guillemotleft" unicode="&#xab;" horiz-adv-x="492" 
d="M149 247l101 -164l-98 -17l-143 182l143 161l100 -11zM369 247l101 -164l-98 -17l-143 182l143 161l100 -11z" />
    <glyph glyph-name="guilsinglleft" unicode="&#x2039;" horiz-adv-x="272" 
d="M149 247l101 -164l-98 -17l-143 182l143 161l100 -11z" />
    <glyph glyph-name="guilsinglright" unicode="&#x203a;" horiz-adv-x="272" 
d="M120 66l-98 17l101 164l-103 151l100 11l143 -161z" />
    <glyph glyph-name="endash" unicode="&#x2013;" horiz-adv-x="497" 
d="M22 218v72h453v-72h-453z" />
    <glyph glyph-name="dagger" unicode="&#x2020;" horiz-adv-x="497" 
d="M297 447v-501q0 -19 -13 -37.5t-39 -18.5t-39.5 18.5t-13.5 37.5v501l-193 -6v101l193 -14v162h105v-163l200 15v-101z" />
    <glyph glyph-name="daggerdbl" unicode="&#x2021;" horiz-adv-x="450" 
d="M137 656l-47 60l209 142l64 -84z" />
    <glyph glyph-name="periodcentered" unicode="&#xb7;" horiz-adv-x="450" 
d="M316 656l-226 118l65 84l208 -142z" />
    <glyph glyph-name="periodcentered" unicode="&#x2219;" horiz-adv-x="450" 
d="M316 656l-226 118l65 84l208 -142z" />
    <glyph glyph-name="paragraph" unicode="&#xb6;" horiz-adv-x="576" 
d="M549 548h-85v-514q0 -52 -14 -96t-42 -76.5t-69 -50.5t-95 -18q-81 0 -160 38l59 96l108 -46h13q11 0 24.5 6t25 20t19.5 37.5t8 58.5v641h240zM222 222q-46 0 -86 16.5t-70 45t-47 67t-17 82.5t17 82.5t47 67t70 45t86 16.5h66v-422h-66z" />
    <glyph glyph-name="bullet" unicode="&#x2022;" horiz-adv-x="441" 
d="M324 314q0 -22 -8 -41.5t-22 -34t-33 -23t-40 -8.5t-40.5 8.5t-33.5 23.5t-22 35t-8 43q0 20 8.5 38t23 31t33 20.5t39.5 7.5t40 -8t33 -21.5t22 -31.5t8 -39z" />
    <glyph glyph-name="quotesinglbase" unicode="&#x201a;" horiz-adv-x="280" 
d="M241 10q0 -37 -27 -86t-94 -103l-50 43q23 21 44 49t26 60q-35 0 -55.5 19.5t-20.5 54.5q0 33 25 53.5t57 20.5q42 0 68.5 -26t26.5 -85z" />
    <glyph glyph-name="quotedblbase" unicode="&#x201e;" 
d="M236 5q0 -37 -27 -86t-94 -103l-50 43q23 21 44 49t26 60q-35 0 -55.5 19.5t-20.5 54.5q0 33 25 53.5t57 20.5q42 0 68.5 -26t26.5 -85zM456 5q0 -37 -27 -86t-94 -103l-50 43q23 21 44 49t26 60q-35 0 -55.5 19.5t-20.5 54.5q0 33 25 53.5t57 20.5q42 0 68.5 -26
t26.5 -85z" />
    <glyph glyph-name="quotedblright" unicode="&#x201d;" 
d="M236 543q0 -37 -27 -86t-94 -103l-50 43q23 21 44 49t26 60q-35 0 -55.5 19.5t-20.5 54.5q0 33 25 53.5t57 20.5q42 0 68.5 -26t26.5 -85zM456 543q0 -37 -27 -86t-94 -103l-50 43q23 21 44 49t26 60q-35 0 -55.5 19.5t-20.5 54.5q0 33 25 53.5t57 20.5q42 0 68.5 -26
t26.5 -85z" />
    <glyph glyph-name="guillemotright" unicode="&#xbb;" horiz-adv-x="492" 
d="M120 66l-98 17l101 164l-103 151l100 11l143 -161zM340 66l-98 17l101 164l-103 151l100 11l143 -161z" />
    <glyph glyph-name="ellipsis" unicode="&#x2026;" horiz-adv-x="807" 
d="M220 63q0 -16 -7 -30t-19 -24.5t-27.5 -16.5t-32.5 -6q-34 0 -57.5 22.5t-23.5 53.5q0 33 25.5 55t60.5 22q34 0 57.5 -22t23.5 -54zM486 63q0 -16 -7 -30t-19 -24.5t-27.5 -16.5t-32.5 -6q-34 0 -57.5 22.5t-23.5 53.5q0 33 25.5 55t60.5 22q34 0 57.5 -22t23.5 -54z
M756 63q0 -16 -7 -30t-19 -24.5t-27.5 -16.5t-32.5 -6q-34 0 -57.5 22.5t-23.5 53.5q0 33 25.5 55t60.5 22q34 0 57.5 -22t23.5 -54z" />
    <glyph glyph-name="perthousand" unicode="&#x2030;" horiz-adv-x="1179" 
d="M264 466q0 59 -20.5 91.5t-58.5 32.5q-37 0 -57.5 -32.5t-20.5 -91.5q0 -60 20.5 -92t57.5 -32q38 0 58.5 32t20.5 92zM707 166q0 60 -20.5 92t-58.5 32q-37 0 -57.5 -32t-20.5 -92q0 -59 20.5 -91t57.5 -32q38 0 58.5 32t20.5 91zM1074 165q0 60 -20.5 92t-57.5 32
q-38 0 -58.5 -32t-20.5 -92q0 -59 20.5 -91t58.5 -32q37 0 57.5 32t20.5 91zM350 462q0 -83 -44.5 -130.5t-120.5 -47.5q-77 0 -120.5 48t-43.5 134t43.5 134t120.5 48q78 0 121.5 -48.5t43.5 -137.5zM360 -21l-76 18l169 665l79 -21zM793 162q0 -82 -44 -130t-121 -48
t-120.5 48.5t-43.5 133.5q0 86 43.5 134.5t120.5 48.5q79 0 122 -49t43 -138zM1160 161q0 -82 -44 -130t-120 -48q-78 0 -121.5 48.5t-43.5 133.5q0 86 43.5 134.5t121.5 48.5t121 -49t43 -138z" />
    <glyph glyph-name="questiondown" unicode="&#xbf;" horiz-adv-x="371" 
d="M299 9l-126 26q-71 14 -114.5 50.5t-43.5 98.5q0 23 7.5 43t17 36t20 27t16.5 16l66 56q5 5 11.5 9t6.5 16q0 11 -21.5 22t-72.5 18l64 79q31 -3 55.5 -10t42 -18t27 -27.5t9.5 -40.5q0 -15 -5 -30t-26 -35l-54 -53q-15 -15 -23.5 -27.5t-12.5 -23t-5 -19.5t-1 -17
q0 -17 10.5 -29t29.5 -20.5t43.5 -14.5t53.5 -10l89 -13zM293 639q0 -33 -25 -55t-61 -22q-34 0 -57.5 22t-23.5 54t25.5 54.5t60.5 22.5t58 -22.5t23 -53.5z" />
    <glyph glyph-name="grave" unicode="`" horiz-adv-x="450" 
d="M268 506l-169 195l80 60l147 -214z" />
    <glyph glyph-name="acute" unicode="&#xb4;" horiz-adv-x="450" 
d="M157 506l-58 41l147 214l80 -60z" />
    <glyph glyph-name="circumflex" unicode="&#x2c6;" horiz-adv-x="450" 
d="M341 533l-118 81l-118 -81l-49 49l167 139l167 -139z" />
    <glyph glyph-name="tilde" unicode="&#x2dc;" horiz-adv-x="450" 
d="M338 555h-36q-16 0 -32.5 7.5t-31.5 16t-28.5 16t-23.5 7.5q-8 0 -19 -9t-22.5 -21t-21 -23.5t-15.5 -15.5l-46 37l97 117h36q16 0 29 -7.5t26 -16t27.5 -16t33.5 -7.5q9 0 20 9t22 21t20.5 23t15.5 16l47 -41z" />
    <glyph glyph-name="macron" unicode="&#xaf;" horiz-adv-x="450" 
d="M73 614v62h302v-62h-302z" />
    <glyph glyph-name="macron" unicode="&#x2c9;" horiz-adv-x="450" 
d="M73 614v62h302v-62h-302z" />
    <glyph glyph-name="breve" unicode="&#x2d8;" horiz-adv-x="450" 
d="M367 655q-18 -24 -52 -45t-85 -21q-37 0 -63.5 11t-47 28t-36.5 39t-32 43l56 31q11 -10 24.5 -22.5t29 -23.5t32.5 -18.5t37 -7.5q21 0 38.5 7t32 18t27.5 23.5t25 23.5l56 -31z" />
    <glyph glyph-name="dotaccent" unicode="&#x2d9;" horiz-adv-x="450" 
d="M330 640q0 -28 -19.5 -47t-48.5 -19q-26 0 -44.5 19t-18.5 46t19.5 46.5t48.5 19.5q26 0 44.5 -19t18.5 -46z" />
    <glyph glyph-name="dieresis" unicode="&#xa8;" horiz-adv-x="450" 
d="M206 619q0 -23 -17.5 -43.5t-49.5 -20.5t-50.5 21t-15.5 45q2 20 20.5 36t45.5 16q29 0 48 -16t19 -38zM385 619q0 -23 -17.5 -43.5t-49.5 -20.5t-50.5 21t-15.5 45q2 20 20.5 36t45.5 16q29 0 48 -16t19 -38z" />
    <glyph glyph-name="ring" unicode="&#x2da;" horiz-adv-x="495" 
d="M277 608q0 20 -17 35t-37 15q-21 0 -37 -15t-16 -35q0 -21 16 -37t37 -16q20 0 37 16t17 37zM326 605q0 -21 -8.5 -39t-22.5 -31.5t-32.5 -21.5t-39.5 -8q-20 0 -38.5 8t-32.5 21.5t-22.5 31.5t-8.5 39t8.5 39t22.5 31.5t32.5 21.5t38.5 8q21 0 39.5 -8t32.5 -21.5
t22.5 -31.5t8.5 -39z" />
    <glyph glyph-name="cedilla" unicode="&#xb8;" horiz-adv-x="450" 
d="M314 -145q0 -30 -11.5 -51t-31.5 -34.5t-46.5 -20t-56.5 -6.5q-13 0 -27.5 0.5t-28.5 2t-26 2.5t-19 3l36 79q16 -4 29 -6.5t37 -2.5q12 0 24 1.5t21.5 5.5t16 12t6.5 21q0 15 -10 24t-24.5 14t-30.5 7t-28 4l62 100h43l-43 -69q19 -1 38.5 -7t35 -17t25 -26.5t9.5 -35.5
z" />
    <glyph glyph-name="hungarumlaut" unicode="&#x2dd;" horiz-adv-x="569" 
d="M36 556l-53 64l208 143l72 -87zM336 556l-53 64l208 143l72 -87z" />
    <glyph glyph-name="ogonek" unicode="&#x2db;" horiz-adv-x="450" 
d="M364 -198q-70 -53 -135 -53q-66 0 -104.5 24.5t-38.5 82.5q0 29 18.5 53t50.5 52l66 59h107q-3 -3 -13.5 -13t-25.5 -24.5t-31.5 -31.5t-30.5 -34t-23 -31.5t-9 -23.5q0 -11 13 -23.5t39 -12.5q21 0 41 8t38 16z" />
    <glyph glyph-name="caron" unicode="&#x2c7;" horiz-adv-x="450" 
d="M223 519l-181 161l58 50l123 -91l123 91l58 -50z" />
    <glyph glyph-name="emdash" unicode="&#x2014;" horiz-adv-x="983" 
d="M22 218v72h939v-72h-939z" />
    <glyph glyph-name="AE" unicode="&#xc6;" horiz-adv-x="776" 
d="M340 452l-106 -222h106v222zM714 0h-374v130h-156l-60 -130h-145l341 642h412l-24 -108h-237v-155h198l-23 -105h-175v-164h283z" />
    <glyph glyph-name="ordfeminine" unicode="&#xaa;" horiz-adv-x="414" 
d="M240 456l-49 -15q-19 -6 -34.5 -18t-15.5 -33q0 -20 15.5 -30t37.5 -10q11 0 24.5 4.5t21.5 12.5v89zM379 299q-14 -4 -35 -7t-29 -3q-6 0 -17 1t-22.5 5t-21.5 13t-14 24q-16 -20 -41 -31.5t-64 -11.5q-40 0 -69.5 22.5t-29.5 68.5q0 23 8.5 39t23 26.5t32 17.5t35.5 12
l105 29v20q0 24 -5 40.5t-34 16.5q-14 0 -30.5 -6.5t-38.5 -23.5l-35 -28l-57 53q26 23 48 37.5t43 22.5t44.5 11t52.5 3q53 0 83.5 -25t28.5 -70l-4 -156q0 -16 3 -23.5t11 -11t21 -4.5t31 -2z" />
    <glyph glyph-name="Oslash" unicode="&#xd8;" horiz-adv-x="692" 
d="M360 539h-7q-42 0 -76 -16t-57.5 -44.5t-36.5 -69t-13 -89.5q0 -78 31 -133t86 -76zM353 101q42 0 76 16t57.5 44.5t36.5 69t13 89.5q0 78 -31 132t-85 75l-72 -426h5zM680 320q0 -75 -23.5 -136.5t-66.5 -105t-103.5 -67.5t-133.5 -24h-12t-12 1l-16 -93l-61 15l15 86
q-55 13 -99.5 41.5t-76 70t-48.5 95.5t-17 117q0 75 23.5 136.5t66.5 105t103 67.5t134 24h13.5t13.5 -1l13 76l58 -15l-12 -69q55 -13 100 -41t76 -70t48 -95.5t17 -117.5z" />
    <glyph glyph-name="OE" unicode="&#x152;" horiz-adv-x="941" 
d="M495 499q-23 20 -53 32.5t-77 12.5q-46 0 -83 -16t-63.5 -45.5t-40.5 -71t-14 -91.5t14 -91.5t40.5 -71t63.5 -45.5t83 -16q40 0 75 13.5t55 31.5v358zM880 0h-385v27q-10 -8 -28 -15t-39.5 -12.5t-43.5 -9t-39 -3.5q-70 0 -128.5 24.5t-101 69t-66 105.5t-23.5 134
t25.5 134t71 105t107.5 69t135 25q34 0 71.5 -10t60.5 -24v23l401 1l-25 -109h-247v-157h209l-24 -103h-185v-164h293z" />
    <glyph glyph-name="ordmasculine" unicode="&#xba;" horiz-adv-x="417" 
d="M291 461q0 124 -83 124q-38 0 -59 -30t-21 -84q0 -127 83 -127q38 0 59 31t21 86zM398 484q0 -52 -16 -90.5t-44 -63.5t-66 -37t-82 -12q-35 0 -66 11t-54.5 32t-37 51.5t-13.5 70.5q0 52 17 90.5t46 63t67 36.5t80 12q34 0 65 -10.5t54 -31t36.5 -51.5t13.5 -71z" />
    <glyph glyph-name="ae" unicode="&#xe6;" horiz-adv-x="723" 
d="M309 95q-14 23 -20 47.5t-8 59.5l-1 4l-66 -19q-30 -8 -46.5 -25t-16.5 -39q0 -23 13.5 -41t44.5 -18q7 0 20.5 2t28 6t28.5 10t23 13zM576 329q0 26 -17 46t-50 20q-20 0 -36.5 -8.5t-29 -22.5t-20 -32.5t-10.5 -38.5l161 6q2 6 2 15.5v14.5zM697 306q0 -14 -2 -31.5
t-9 -38.5l-282 -10v-15q0 -21 8.5 -42.5t24.5 -38t38.5 -27t49.5 -10.5q18 0 33.5 1.5t33.5 5.5t39 12t49 20l-24 -118q-32 -14 -72.5 -21t-79.5 -7q-54 0 -97.5 17t-72.5 52q-18 -14 -34 -26t-35 -22t-43.5 -15.5t-58.5 -5.5q-63 0 -96.5 29.5t-33.5 82.5q0 36 11.5 59.5
t32.5 39t50 26t63 19.5l90 24v63q0 29 -4.5 45.5t-28.5 16.5q-22 0 -47.5 -11t-54.5 -36l-47 -41l-64 76q40 41 100.5 68.5t126.5 27.5q44 0 70.5 -13.5t42.5 -33.5q29 24 63 34t74 10q88 0 137 -40.5t49 -125.5z" />
    <glyph glyph-name="dotlessi" unicode="&#x131;" horiz-adv-x="267" 
d="M70 0v438l127 43v-481h-127z" />
    <glyph glyph-name="oslash" unicode="&#xf8;" horiz-adv-x="516" 
d="M274 395q-4 1 -11 1q-21 0 -40 -12t-33.5 -33t-23 -50.5t-8.5 -63.5q0 -60 16 -100t42 -59zM370 223q0 61 -15.5 100.5t-41.5 57.5l-58 -318q3 0 6.5 -0.5t6.5 -0.5q20 0 38.5 12t32.5 33.5t22.5 51t8.5 64.5zM498 252q0 -62 -17.5 -111.5t-51 -85t-81 -54.5t-107.5 -19
l-17 -88l-39 13l14 79q-78 14 -123.5 74t-45.5 146q0 64 19 114.5t53 85t81.5 53t104.5 18.5l15 83l39 -17l-13 -69q79 -13 124 -73t45 -149z" />
    <glyph glyph-name="oe" unicode="&#x153;" horiz-adv-x="803" 
d="M363 223q0 85 -25 129t-77 44q-21 0 -39 -12t-31.5 -33t-21 -50.5t-7.5 -63.5q0 -85 26 -130t78 -45q20 0 38 12t31 33.5t20.5 51t7.5 64.5zM660 329q0 26 -17.5 47.5t-49.5 21.5q-20 0 -37.5 -9t-31 -23.5t-22 -33.5t-11.5 -39l167 6q2 6 2 15.5v14.5zM781 306
q0 -14 -2 -31.5t-10 -38.5l-285 -10q0 -11 -1 -16q0 -21 8 -42.5t24 -39t39.5 -28t54.5 -10.5q45 0 85.5 13t69.5 29l-25 -118q-31 -14 -71.5 -22.5t-79.5 -8.5q-109 0 -169 69q-31 -34 -76 -52t-104 -18q-49 0 -87.5 17t-65.5 47t-41.5 71t-14.5 89q0 65 19 115.5t53 85
t81.5 52.5t104.5 18q49 0 86 -17t62 -47q28 29 67.5 45.5t91.5 16.5q88 0 137 -42t49 -127z" />
    <glyph glyph-name="germandbls" unicode="&#xdf;" horiz-adv-x="586" 
d="M562 132q0 -38 -15 -65.5t-40 -45.5t-56 -26.5t-63 -8.5q-14 0 -27.5 1t-29.5 4.5t-37 9.5t-49 16l34 94q34 -20 58.5 -26t47.5 -6q29 0 42 14t13 35q0 25 -17 40t-48 32q-20 10 -40.5 23.5t-37 31.5t-27 41t-10.5 53q0 21 9 38.5t22.5 32.5t29 28t29.5 25q44 38 44 83
q0 14 -4.5 27t-16 23.5t-29.5 17t-45 6.5q-49 0 -80 -32.5t-31 -97.5v-500h-122v479q0 52 15.5 96t45 75.5t72 49.5t97.5 18q28 0 64.5 -6t69.5 -23t55.5 -47.5t22.5 -79.5q0 -42 -21.5 -72.5t-44.5 -52.5q-26 -23 -43.5 -39.5t-17.5 -38.5q0 -20 11 -33.5t41 -30.5
q27 -15 51 -30.5t41 -34t27 -42.5t10 -56z" />
    <glyph glyph-name="Ydieresis" unicode="&#x178;" horiz-adv-x="544" 
d="M333 262v-262h-137v271l-210 371h155l140 -250l139 250h138zM248 750q0 -23 -17.5 -44t-49.5 -21t-50.5 21t-15.5 45q2 20 20.5 36t45.5 16q29 0 48 -16t19 -37zM447 750q0 -23 -17.5 -44t-49.5 -21t-50.5 21t-15.5 45q2 20 20.5 36t45.5 16q29 0 48 -16t19 -37z" />
    <glyph glyph-name="trademark" unicode="&#x2122;" horiz-adv-x="1102" 
d="M389 560h-109v-329h-110v329h-118v81h373zM898 229v253l-129 -152l-115 139v-238h-97v340l-68 70h135l158 -179l158 179h67v-412h-109z" />
    <glyph glyph-name="ydieresis" unicode="&#xff;" horiz-adv-x="438" 
d="M263 0q-16 -42 -34.5 -80.5t-44 -68t-60.5 -47t-84 -17.5l-36 126h52q22 0 40 1.5t31.5 7.5t23.5 18t16 34l-167 481h134l96 -288l97 288h112zM206 593q0 -23 -18 -43.5t-49 -20.5q-33 0 -51 21t-15 45q2 20 20.5 36t45.5 16q29 0 48 -16t19 -38zM405 593
q0 -23 -18 -43.5t-49 -20.5q-33 0 -51 21t-15 45q2 20 20.5 36t45.5 16q29 0 48 -16t19 -38z" />
    <glyph glyph-name="udieresis" unicode="&#xfc;" horiz-adv-x="536" 
d="M342 -24v74q-21 -23 -52 -43.5t-77 -20.5q-66 0 -106.5 35.5t-40.5 108.5v317l128 29v-299q0 -30 3 -49.5t11 -31.5t22 -16.5t35 -4.5q23 0 42.5 8t34.5 20v344l128 30v-459zM236 597q0 -23 -17.5 -43.5t-49.5 -20.5t-50.5 21t-15.5 45q2 20 20.5 36t45.5 16q29 0 48 -16
t19 -38zM435 597q0 -23 -17.5 -43.5t-49.5 -20.5t-50.5 21t-15.5 45q2 20 20.5 36t45.5 16q29 0 48 -16t19 -38z" />
    <glyph glyph-name="ucircumflex" unicode="&#xfb;" horiz-adv-x="536" 
d="M391 533l-118 81l-118 -81l-49 49l167 139l167 -139zM342 -24v74q-21 -23 -52 -43.5t-77 -20.5q-66 0 -106.5 35.5t-40.5 108.5v317l128 29v-299q0 -30 3 -49.5t11 -31.5t22 -16.5t35 -4.5q23 0 42.5 8t34.5 20v344l128 30v-459z" />
    <glyph glyph-name="uacute" unicode="&#xfa;" horiz-adv-x="536" 
d="M342 -24v74q-21 -23 -52 -43.5t-77 -20.5q-66 0 -106.5 35.5t-40.5 108.5v317l128 29v-299q0 -30 3 -49.5t11 -31.5t22 -16.5t35 -4.5q23 0 42.5 8t34.5 20v344l128 30v-459zM267 506l-58 41l147 214l80 -60z" />
    <glyph glyph-name="ugrave" unicode="&#xf9;" horiz-adv-x="536" 
d="M342 -24v74q-21 -23 -52 -43.5t-77 -20.5q-66 0 -106.5 35.5t-40.5 108.5v317l128 29v-299q0 -30 3 -49.5t11 -31.5t22 -16.5t35 -4.5q23 0 42.5 8t34.5 20v344l128 30v-459zM288 506l-169 195l80 60l147 -214z" />
    <glyph glyph-name="divide" unicode="&#xf7;" horiz-adv-x="560" 
d="M372 64q0 -16 -7 -30.5t-19 -25t-27.5 -16.5t-32.5 -6q-34 0 -57.5 22.5t-23.5 54.5q0 34 25.5 56.5t60.5 22.5q34 0 57.5 -23t23.5 -55zM406 193h-248l-147 -8l21 102l334 -3l189 3v-102zM372 399q0 -17 -7 -31t-19 -25t-27.5 -17t-32.5 -6q-34 0 -57.5 23t-23.5 55
q0 33 25.5 55.5t60.5 22.5q34 0 57.5 -22.5t23.5 -54.5z" />
    <glyph glyph-name="odieresis" unicode="&#xf6;" horiz-adv-x="528" 
d="M360 224q0 166 -98 166q-20 0 -37 -11t-29.5 -31t-20 -48t-7.5 -62q0 -86 25.5 -128t73.5 -42q19 0 36 11t29.5 31.5t20 49t7.5 64.5zM492 252q0 -123 -62.5 -194.5t-189.5 -71.5q-49 0 -87 16t-64 45t-39.5 69.5t-13.5 89.5q0 131 66 199t185 68q49 0 87 -16t64 -45
t40 -70t14 -90zM232 597q0 -23 -17.5 -43.5t-49.5 -20.5t-50.5 21t-15.5 45q2 20 20.5 36t45.5 16q29 0 48 -16t19 -38zM431 597q0 -23 -17.5 -43.5t-49.5 -20.5t-50.5 21t-15.5 45q2 20 20.5 36t45.5 16q29 0 48 -16t19 -38z" />
    <glyph glyph-name="otilde" unicode="&#xf5;" horiz-adv-x="528" 
d="M344 555h-36q-16 0 -32.5 7.5t-31.5 16t-28.5 16t-23.5 7.5q-8 0 -19 -9t-22.5 -21t-21 -23.5t-15.5 -15.5l-46 37l97 117h36q16 0 29 -7.5t26 -16t27.5 -16t33.5 -7.5q9 0 20 9t22 21t20.5 23t15.5 16l47 -41zM360 224q0 166 -98 166q-20 0 -37 -11t-29.5 -31t-20 -48
t-7.5 -62q0 -86 25.5 -128t73.5 -42q19 0 36 11t29.5 31.5t20 49t7.5 64.5zM492 252q0 -123 -62.5 -194.5t-189.5 -71.5q-49 0 -87 16t-64 45t-39.5 69.5t-13.5 89.5q0 131 66 199t185 68q49 0 87 -16t64 -45t40 -70t14 -90z" />
    <glyph glyph-name="ocircumflex" unicode="&#xf4;" horiz-adv-x="528" 
d="M360 224q0 166 -98 166q-20 0 -37 -11t-29.5 -31t-20 -48t-7.5 -62q0 -86 25.5 -128t73.5 -42q19 0 36 11t29.5 31.5t20 49t7.5 64.5zM492 252q0 -123 -62.5 -194.5t-189.5 -71.5q-49 0 -87 16t-64 45t-39.5 69.5t-13.5 89.5q0 131 66 199t185 68q49 0 87 -16t64 -45
t40 -70t14 -90zM392 533l-123 81l-123 -81l-59 49l182 139l182 -139z" />
    <glyph glyph-name="oacute" unicode="&#xf3;" horiz-adv-x="528" 
d="M360 224q0 166 -98 166q-20 0 -37 -11t-29.5 -31t-20 -48t-7.5 -62q0 -86 25.5 -128t73.5 -42q19 0 36 11t29.5 31.5t20 49t7.5 64.5zM492 252q0 -123 -62.5 -194.5t-189.5 -71.5q-49 0 -87 16t-64 45t-39.5 69.5t-13.5 89.5q0 131 66 199t185 68q49 0 87 -16t64 -45
t40 -70t14 -90zM273 506l-58 41l147 214l80 -60z" />
    <glyph glyph-name="ograve" unicode="&#xf2;" horiz-adv-x="528" 
d="M360 224q0 166 -98 166q-20 0 -37 -11t-29.5 -31t-20 -48t-7.5 -62q0 -86 25.5 -128t73.5 -42q19 0 36 11t29.5 31.5t20 49t7.5 64.5zM492 252q0 -123 -62.5 -194.5t-189.5 -71.5q-49 0 -87 16t-64 45t-39.5 69.5t-13.5 89.5q0 131 66 199t185 68q49 0 87 -16t64 -45
t40 -70t14 -90zM284 506l-169 195l80 60l147 -214z" />
    <glyph glyph-name="ntilde" unicode="&#xf1;" horiz-adv-x="535" 
d="M368 555h-36q-16 0 -32.5 7.5t-31.5 16t-28.5 16t-23.5 7.5q-8 0 -19 -9t-22.5 -21t-21 -23.5t-15.5 -15.5l-46 37l97 117h36q16 0 29 -7.5t26 -16t27.5 -16t33.5 -7.5q9 0 20 9t22 21t20.5 23t15.5 16l47 -41zM342 0v251q0 24 -1 48t-8.5 42.5t-24 30t-47.5 11.5
q-17 0 -36 -6t-32 -13v-364h-127v447l127 31v-65q28 28 63 44t67 16q66 0 106 -36t40 -109v-328h-127z" />
    <glyph glyph-name="idieresis" unicode="&#xef;" horiz-adv-x="259" 
d="M66 0v447l127 34v-481h-127zM106 597q0 -23 -17.5 -43.5t-49.5 -20.5t-50.5 21t-15.5 45q2 20 20.5 36t45.5 16q29 0 48 -16t19 -38zM305 597q0 -23 -17.5 -43.5t-49.5 -20.5t-50.5 21t-15.5 45q2 20 20.5 36t45.5 16q29 0 48 -16t19 -38z" />
    <glyph glyph-name="icircumflex" unicode="&#xee;" horiz-adv-x="259" 
d="M251 533l-118 81l-118 -81l-49 49l167 139l167 -139zM66 0v447l127 34v-481h-127z" />
    <glyph glyph-name="iacute" unicode="&#xed;" horiz-adv-x="259" 
d="M66 0v447l127 34v-481h-127zM127 506l-58 41l147 214l80 -60z" />
    <glyph glyph-name="igrave" unicode="&#xec;" horiz-adv-x="259" 
d="M66 0v447l127 34v-481h-127zM138 506l-169 195l80 60l147 -214z" />
    <glyph glyph-name="edieresis" unicode="&#xeb;" horiz-adv-x="489" 
d="M328 329q0 26 -17 46.5t-46 20.5q-20 0 -37.5 -8.5t-31 -23t-22 -33t-11.5 -38.5l163 6q2 6 2 15.5v14.5zM449 306q0 -14 -1 -33.5t-8 -42.5l-285 -8v-11q0 -21 8 -42.5t23.5 -38t39 -27t55.5 -10.5q45 0 81 11.5t63 27.5l-24 -118q-31 -14 -66.5 -21t-74.5 -7
q-48 0 -89 15t-71 45t-47 74.5t-17 103.5q0 48 14 93t42.5 79.5t72 55.5t102.5 21q81 0 131.5 -42t50.5 -125zM222 597q0 -23 -17.5 -43.5t-49.5 -20.5t-50.5 21t-15.5 45q2 20 20.5 36t45.5 16q29 0 48 -16t19 -38zM421 597q0 -23 -17.5 -43.5t-49.5 -20.5t-50.5 21
t-15.5 45q2 20 20.5 36t45.5 16q29 0 48 -16t19 -38z" />
    <glyph glyph-name="ecircumflex" unicode="&#xea;" horiz-adv-x="489" 
d="M367 533l-118 81l-118 -81l-49 49l167 139l167 -139zM328 329q0 26 -17 46.5t-46 20.5q-20 0 -37.5 -8.5t-31 -23t-22 -33t-11.5 -38.5l163 6q2 6 2 15.5v14.5zM449 306q0 -14 -1 -33.5t-8 -42.5l-285 -8v-11q0 -21 8 -42.5t23.5 -38t39 -27t55.5 -10.5q45 0 81 11.5
t63 27.5l-24 -118q-31 -14 -66.5 -21t-74.5 -7q-48 0 -89 15t-71 45t-47 74.5t-17 103.5q0 48 14 93t42.5 79.5t72 55.5t102.5 21q81 0 131.5 -42t50.5 -125z" />
    <glyph glyph-name="eacute" unicode="&#xe9;" horiz-adv-x="489" 
d="M328 329q0 26 -17 46.5t-46 20.5q-20 0 -37.5 -8.5t-31 -23t-22 -33t-11.5 -38.5l163 6q2 6 2 15.5v14.5zM449 306q0 -14 -1 -33.5t-8 -42.5l-285 -8v-11q0 -21 8 -42.5t23.5 -38t39 -27t55.5 -10.5q45 0 81 11.5t63 27.5l-24 -118q-31 -14 -66.5 -21t-74.5 -7
q-48 0 -89 15t-71 45t-47 74.5t-17 103.5q0 48 14 93t42.5 79.5t72 55.5t102.5 21q81 0 131.5 -42t50.5 -125zM263 506l-58 41l147 214l80 -60z" />
    <glyph glyph-name="egrave" unicode="&#xe8;" horiz-adv-x="489" 
d="M328 329q0 26 -17 46.5t-46 20.5q-20 0 -37.5 -8.5t-31 -23t-22 -33t-11.5 -38.5l163 6q2 6 2 15.5v14.5zM449 306q0 -14 -1 -33.5t-8 -42.5l-285 -8v-11q0 -21 8 -42.5t23.5 -38t39 -27t55.5 -10.5q45 0 81 11.5t63 27.5l-24 -118q-31 -14 -66.5 -21t-74.5 -7
q-48 0 -89 15t-71 45t-47 74.5t-17 103.5q0 48 14 93t42.5 79.5t72 55.5t102.5 21q81 0 131.5 -42t50.5 -125zM264 506l-169 195l80 60l147 -214z" />
    <glyph glyph-name="ccedilla" unicode="&#xe7;" horiz-adv-x="451" 
d="M342 315l-68 74h-8q-20 0 -40 -9.5t-36 -28.5t-26 -48t-10 -67q0 -66 33 -103t90 -37q35 0 63.5 9t54.5 24l-28 -120q-31 -13 -55.5 -18t-57.5 -5l-28 -45q19 -1 38.5 -7t35 -17t25 -26.5t9.5 -35.5q0 -30 -11.5 -51t-31.5 -34.5t-46.5 -20t-56.5 -6.5q-13 0 -27.5 0.5
t-28.5 2t-26 2.5t-19 3l36 79q16 -4 29 -6.5t37 -2.5q12 0 24 1.5t21.5 5.5t16 12t6.5 21q0 15 -10 24t-24.5 14t-30.5 7t-28 4l49 79q-42 6 -76 25.5t-58 49.5t-36.5 69.5t-12.5 86.5q0 57 17 103.5t48 79.5t74.5 51.5t95.5 18.5q49 0 88.5 -19t73.5 -71z" />
    <glyph glyph-name="aring" unicode="&#xe5;" horiz-adv-x="499" 
d="M293 206l-76 -21q-30 -8 -46.5 -24t-16.5 -38q0 -23 17 -41t51 -18q20 0 38.5 6t32.5 15v121zM463 -1q-21 -7 -40 -10t-31 -3q-27 0 -54.5 12t-36.5 42q-35 -30 -68 -42t-77 -12q-59 0 -89.5 34t-30.5 83q0 33 13.5 57t36 41t50.5 28.5t57 19.5l100 26v64q0 22 -7 36.5
t-26 14.5q-14 0 -26 -3t-26 -10.5t-31 -20.5t-39 -32l-22 -19l-64 78q56 48 112.5 69t119.5 21q75 0 106.5 -32.5t29.5 -91.5l-6 -245q0 -15 5.5 -22t15 -9.5t21 -3t22.5 -1.5zM309 608q0 20 -17 35t-37 15q-21 0 -37 -15t-16 -35q0 -21 16 -37t37 -16q20 0 37 16t17 37z
M358 605q0 -21 -8.5 -39t-22.5 -31.5t-32.5 -21.5t-39.5 -8q-20 0 -38.5 8t-32.5 21.5t-22.5 31.5t-8.5 39t8.5 39t22.5 31.5t32.5 21.5t38.5 8q21 0 39.5 -8t32.5 -21.5t22.5 -31.5t8.5 -39z" />
    <glyph glyph-name="adieresis" unicode="&#xe4;" horiz-adv-x="499" 
d="M293 206l-76 -21q-30 -8 -46.5 -24t-16.5 -38q0 -23 17 -41t51 -18q20 0 38.5 6t32.5 15v121zM463 -1q-21 -7 -40 -10t-31 -3q-27 0 -54.5 12t-36.5 42q-35 -30 -68 -42t-77 -12q-59 0 -89.5 34t-30.5 83q0 33 13.5 57t36 41t50.5 28.5t57 19.5l100 26v64q0 22 -7 36.5
t-26 14.5q-14 0 -26 -3t-26 -10.5t-31 -20.5t-39 -32l-22 -19l-64 78q56 48 112.5 69t119.5 21q75 0 106.5 -32.5t29.5 -91.5l-6 -245q0 -15 5.5 -22t15 -9.5t21 -3t22.5 -1.5zM226 597q0 -23 -17.5 -43.5t-49.5 -20.5t-50.5 21t-15.5 45q2 20 20.5 36t45.5 16q29 0 48 -16
t19 -38zM425 597q0 -23 -17.5 -43.5t-49.5 -20.5t-50.5 21t-15.5 45q2 20 20.5 36t45.5 16q29 0 48 -16t19 -38z" />
    <glyph glyph-name="atilde" unicode="&#xe3;" horiz-adv-x="499" 
d="M293 206l-76 -21q-30 -8 -46.5 -24t-16.5 -38q0 -23 17 -41t51 -18q20 0 38.5 6t32.5 15v121zM463 -1q-21 -7 -40 -10t-31 -3q-27 0 -54.5 12t-36.5 42q-35 -30 -68 -42t-77 -12q-59 0 -89.5 34t-30.5 83q0 33 13.5 57t36 41t50.5 28.5t57 19.5l100 26v64q0 22 -7 36.5
t-26 14.5q-14 0 -26 -3t-26 -10.5t-31 -20.5t-39 -32l-22 -19l-64 78q56 48 112.5 69t119.5 21q75 0 106.5 -32.5t29.5 -91.5l-6 -245q0 -15 5.5 -22t15 -9.5t21 -3t22.5 -1.5zM348 555h-36q-16 0 -32.5 7.5t-31.5 16t-28.5 16t-23.5 7.5q-8 0 -19 -9t-22.5 -21t-21 -23.5
t-15.5 -15.5l-46 37l97 117h36q16 0 29 -7.5t26 -16t27.5 -16t33.5 -7.5q9 0 20 9t22 21t20.5 23t15.5 16l47 -41z" />
    <glyph glyph-name="acircumflex" unicode="&#xe2;" horiz-adv-x="499" 
d="M293 206l-76 -21q-30 -8 -46.5 -24t-16.5 -38q0 -23 17 -41t51 -18q20 0 38.5 6t32.5 15v121zM463 -1q-21 -7 -40 -10t-31 -3q-27 0 -54.5 12t-36.5 42q-35 -30 -68 -42t-77 -12q-59 0 -89.5 34t-30.5 83q0 33 13.5 57t36 41t50.5 28.5t57 19.5l100 26v64q0 22 -7 36.5
t-26 14.5q-14 0 -26 -3t-26 -10.5t-31 -20.5t-39 -32l-22 -19l-64 78q56 48 112.5 69t119.5 21q75 0 106.5 -32.5t29.5 -91.5l-6 -245q0 -15 5.5 -22t15 -9.5t21 -3t22.5 -1.5zM371 533l-118 81l-118 -81l-49 49l167 139l167 -139z" />
    <glyph glyph-name="aacute" unicode="&#xe1;" horiz-adv-x="499" 
d="M293 206l-76 -21q-30 -8 -46.5 -24t-16.5 -38q0 -23 17 -41t51 -18q20 0 38.5 6t32.5 15v121zM463 -1q-21 -7 -40 -10t-31 -3q-27 0 -54.5 12t-36.5 42q-35 -30 -68 -42t-77 -12q-59 0 -89.5 34t-30.5 83q0 33 13.5 57t36 41t50.5 28.5t57 19.5l100 26v64q0 22 -7 36.5
t-26 14.5q-14 0 -26 -3t-26 -10.5t-31 -20.5t-39 -32l-22 -19l-64 78q56 48 112.5 69t119.5 21q75 0 106.5 -32.5t29.5 -91.5l-6 -245q0 -15 5.5 -22t15 -9.5t21 -3t22.5 -1.5zM267 506l-58 41l147 214l80 -60z" />
    <glyph glyph-name="agrave" unicode="&#xe0;" horiz-adv-x="499" 
d="M293 206l-76 -21q-30 -8 -46.5 -24t-16.5 -38q0 -23 17 -41t51 -18q20 0 38.5 6t32.5 15v121zM463 -1q-21 -7 -40 -10t-31 -3q-27 0 -54.5 12t-36.5 42q-35 -30 -68 -42t-77 -12q-59 0 -89.5 34t-30.5 83q0 33 13.5 57t36 41t50.5 28.5t57 19.5l100 26v64q0 22 -7 36.5
t-26 14.5q-14 0 -26 -3t-26 -10.5t-31 -20.5t-39 -32l-22 -19l-64 78q56 48 112.5 69t119.5 21q75 0 106.5 -32.5t29.5 -91.5l-6 -245q0 -15 5.5 -22t15 -9.5t21 -3t22.5 -1.5zM268 506l-169 195l80 60l147 -214z" />
    <glyph glyph-name="Udieresis" unicode="&#xdc;" horiz-adv-x="643" 
d="M577 248q0 -60 -16.5 -108.5t-48.5 -82.5t-79 -52.5t-108 -18.5q-130 0 -194.5 63.5t-64.5 196.5v396h137v-390q0 -72 31 -113t91 -41q35 0 60 10.5t40.5 28.5t22.5 43t7 55v407h122v-394zM294 749q0 -23 -17.5 -43.5t-49.5 -20.5t-50.5 21t-15.5 45q2 20 20.5 36
t45.5 16q29 0 48 -16t19 -38zM493 749q0 -23 -17.5 -43.5t-49.5 -20.5t-50.5 21t-15.5 45q2 20 20.5 36t45.5 16q29 0 48 -16t19 -38z" />
    <glyph glyph-name="Ucircumflex" unicode="&#xdb;" horiz-adv-x="643" 
d="M443 683l-118 81l-118 -81l-49 49l167 139l167 -139zM577 248q0 -60 -16.5 -108.5t-48.5 -82.5t-79 -52.5t-108 -18.5q-130 0 -194.5 63.5t-64.5 196.5v396h137v-390q0 -72 31 -113t91 -41q35 0 60 10.5t40.5 28.5t22.5 43t7 55v407h122v-394z" />
    <glyph glyph-name="Uacute" unicode="&#xda;" horiz-adv-x="643" 
d="M577 248q0 -60 -16.5 -108.5t-48.5 -82.5t-79 -52.5t-108 -18.5q-130 0 -194.5 63.5t-64.5 196.5v396h137v-390q0 -72 31 -113t91 -41q35 0 60 10.5t40.5 28.5t22.5 43t7 55v407h122v-394zM309 680l-47 60l209 142l64 -84z" />
    <glyph glyph-name="Ugrave" unicode="&#xd9;" horiz-adv-x="643" 
d="M577 248q0 -60 -16.5 -108.5t-48.5 -82.5t-79 -52.5t-108 -18.5q-130 0 -194.5 63.5t-64.5 196.5v396h137v-390q0 -72 31 -113t91 -41q35 0 60 10.5t40.5 28.5t22.5 43t7 55v407h122v-394zM334 680l-226 118l65 84l208 -142z" />
    <glyph glyph-name="Odieresis" unicode="&#xd6;" horiz-adv-x="692" 
d="M522 320q0 49 -12 89.5t-34.5 69t-55 44.5t-74.5 16t-75 -16t-55.5 -44.5t-34 -69t-11.5 -89.5t11.5 -89.5t34 -69t55.5 -44.5t75 -16t74.5 16t55 44.5t34.5 69t12 89.5zM666 320q0 -75 -23 -136.5t-65 -105t-101 -67.5t-131 -24t-131 24t-101 67.5t-65 105t-23 136.5
t23 136.5t65 105t101 67.5t131 24t131 -24t101 -67.5t65 -105t23 -136.5zM314 751q0 -23 -17.5 -43.5t-49.5 -20.5t-50.5 21t-15.5 45q2 20 20.5 36t45.5 16q29 0 48 -16t19 -38zM513 751q0 -23 -17.5 -43.5t-49.5 -20.5t-50.5 21t-15.5 45q2 20 20.5 36t45.5 16
q29 0 48 -16t19 -38z" />
    <glyph glyph-name="Otilde" unicode="&#xd5;" horiz-adv-x="692" 
d="M522 320q0 49 -12 89.5t-34.5 69t-55 44.5t-74.5 16t-75 -16t-55.5 -44.5t-34 -69t-11.5 -89.5t11.5 -89.5t34 -69t55.5 -44.5t75 -16t74.5 16t55 44.5t34.5 69t12 89.5zM666 320q0 -75 -23 -136.5t-65 -105t-101 -67.5t-131 -24t-131 24t-101 67.5t-65 105t-23 136.5
t23 136.5t65 105t101 67.5t131 24t131 -24t101 -67.5t65 -105t23 -136.5zM461 688h-35q-16 0 -32.5 7.5t-31.5 16t-28.5 16t-23.5 7.5q-8 0 -19.5 -9t-22.5 -21t-21 -23.5t-15 -15.5l-46 37l97 116h36q16 0 29 -7.5t26 -16t27.5 -16t33.5 -7.5q8 0 19 9t22.5 21t21 23.5
t14.5 16.5l47 -41z" />
    <glyph glyph-name="Ocircumflex" unicode="&#xd4;" horiz-adv-x="692" 
d="M522 320q0 49 -12 89.5t-34.5 69t-55 44.5t-74.5 16t-75 -16t-55.5 -44.5t-34 -69t-11.5 -89.5t11.5 -89.5t34 -69t55.5 -44.5t75 -16t74.5 16t55 44.5t34.5 69t12 89.5zM666 320q0 -75 -23 -136.5t-65 -105t-101 -67.5t-131 -24t-131 24t-101 67.5t-65 105t-23 136.5
t23 136.5t65 105t101 67.5t131 24t131 -24t101 -67.5t65 -105t23 -136.5zM461 683l-118 81l-118 -81l-49 49l167 139l167 -139z" />
    <glyph glyph-name="Oacute" unicode="&#xd3;" horiz-adv-x="692" 
d="M522 320q0 49 -12 89.5t-34.5 69t-55 44.5t-74.5 16t-75 -16t-55.5 -44.5t-34 -69t-11.5 -89.5t11.5 -89.5t34 -69t55.5 -44.5t75 -16t74.5 16t55 44.5t34.5 69t12 89.5zM666 320q0 -75 -23 -136.5t-65 -105t-101 -67.5t-131 -24t-131 24t-101 67.5t-65 105t-23 136.5
t23 136.5t65 105t101 67.5t131 24t131 -24t101 -67.5t65 -105t23 -136.5zM337 680l-47 60l209 142l64 -84z" />
    <glyph glyph-name="Ograve" unicode="&#xd2;" horiz-adv-x="692" 
d="M522 320q0 49 -12 89.5t-34.5 69t-55 44.5t-74.5 16t-75 -16t-55.5 -44.5t-34 -69t-11.5 -89.5t11.5 -89.5t34 -69t55.5 -44.5t75 -16t74.5 16t55 44.5t34.5 69t12 89.5zM666 320q0 -75 -23 -136.5t-65 -105t-101 -67.5t-131 -24t-131 24t-101 67.5t-65 105t-23 136.5
t23 136.5t65 105t101 67.5t131 24t131 -24t101 -67.5t65 -105t23 -136.5zM351 680l-226 118l65 84l208 -142z" />
    <glyph glyph-name="Ntilde" unicode="&#xd1;" horiz-adv-x="683" 
d="M439 701h-36q-15 0 -31.5 7.5t-32 16t-29 16t-23.5 7.5q-8 0 -19 -9t-22 -21t-21 -23.5t-15 -15.5l-46 37l97 117h35q16 0 29 -7.5t26 -16.5t27.5 -16.5t33.5 -7.5q9 0 20 9t22 21t20.5 23.5t15.5 16.5l47 -41zM534 0l-326 406v-406h-122v559l-67 83h174l293 -370v370
h123v-642h-75z" />
    <glyph glyph-name="Idieresis" unicode="&#xcf;" horiz-adv-x="285" 
d="M74 0v642h137v-642h-137zM106 749q0 -23 -17.5 -43.5t-49.5 -20.5t-50.5 21t-15.5 45q2 20 20.5 36t45.5 16q29 0 48 -16t19 -38zM305 749q0 -23 -17.5 -43.5t-49.5 -20.5t-50.5 21t-15.5 45q2 20 20.5 36t45.5 16q29 0 48 -16t19 -38z" />
    <glyph glyph-name="Icircumflex" unicode="&#xce;" horiz-adv-x="285" 
d="M262 683l-118 81l-118 -81l-49 49l167 139l167 -139zM74 0v642h137v-642h-137z" />
    <glyph glyph-name="Iacute" unicode="&#xcd;" horiz-adv-x="285" 
d="M74 0v642h137v-642h-137zM129 682l-47 60l209 142l64 -84z" />
    <glyph glyph-name="Igrave" unicode="&#xcc;" horiz-adv-x="285" 
d="M74 0v642h137v-642h-137zM176 680l-226 118l65 84l208 -142z" />
    <glyph glyph-name="Edieresis" unicode="&#xcb;" 
d="M444 0h-370v642h400l-37 -109h-226v-154h210l-36 -108h-174v-159h285zM240 751q0 -23 -17.5 -43.5t-49.5 -20.5t-49 21t-17 45q0 20 19.5 36t46.5 16q29 0 48 -16t19 -38zM439 751q0 -23 -17.5 -43.5t-49.5 -20.5t-49 21t-17 45q0 20 19.5 36t46.5 16q29 0 48 -16t19 -38
z" />
    <glyph glyph-name="Ecircumflex" unicode="&#xca;" 
d="M381 683l-118 81l-118 -81l-49 49l167 139l167 -139zM444 0h-370v642h400l-37 -109h-226v-154h210l-36 -108h-174v-159h285z" />
    <glyph glyph-name="Eacute" unicode="&#xc9;" 
d="M444 0h-370v642h400l-37 -109h-226v-154h210l-36 -108h-174v-159h285zM197 684l-47 60l209 142l64 -84z" />
    <glyph glyph-name="Egrave" unicode="&#xc8;" 
d="M444 0h-370v642h400l-37 -109h-226v-154h210l-36 -108h-174v-159h285zM342 682l-226 118l65 84l208 -142z" />
    <glyph glyph-name="Ccedilla" unicode="&#xc7;" horiz-adv-x="625" 
d="M581 43q-77 -54 -196 -55l-29 -47q19 -1 38.5 -7t35 -17t25 -26.5t9.5 -35.5q0 -30 -11.5 -51t-31.5 -34.5t-46.5 -20t-56.5 -6.5q-13 0 -27.5 0.5t-28.5 2t-26 2.5t-19 3l36 79q16 -4 29 -6.5t37 -2.5q12 0 24 1.5t21.5 5.5t16 12t6.5 21q0 15 -10 24t-24.5 14t-30.5 7
t-28 4l49 79q-74 5 -133 31.5t-100.5 70t-63.5 101t-22 124.5q0 73 26 135t72.5 107t111.5 70t143 25q63 0 115 -12.5t89 -34.5v-141q-52 37 -102.5 54.5t-104.5 17.5q-44 0 -82 -15.5t-65.5 -43.5t-43 -67t-15.5 -87q0 -44 15.5 -83t43 -69t65.5 -47.5t82 -17.5q28 0 53 3
t49.5 11.5t50 22.5t54.5 36v-137z" />
    <glyph glyph-name="Aring" unicode="&#xc5;" horiz-adv-x="565" 
d="M287 420l-78 -203h154zM333 784q0 20 -17 35t-38 15q-20 0 -36.5 -15t-16.5 -35q0 -21 16.5 -37t36.5 -16q21 0 38 16t17 37zM446 0l-46 122h-228l-46 -122h-136l236 584l-24 59h149l244 -643h-149zM382 781q0 -21 -8.5 -39t-22.5 -31.5t-33 -21.5t-40 -8q-20 0 -38.5 8
t-32.5 21.5t-22.5 31.5t-8.5 39t8.5 39t22.5 31.5t32.5 21.5t38.5 8q21 0 40 -8t33 -21.5t22.5 -31.5t8.5 -39z" />
    <glyph glyph-name="Adieresis" unicode="&#xc4;" horiz-adv-x="565" 
d="M287 420l-78 -203h154zM446 0l-46 122h-228l-46 -122h-136l236 584l-24 59h149l244 -643h-149zM247 752q0 -23 -17.5 -43.5t-49.5 -20.5t-50.5 21t-15.5 44q2 20 20.5 36.5t45.5 16.5q29 0 48 -16.5t19 -37.5zM446 752q0 -23 -17.5 -43.5t-49.5 -20.5t-50.5 21t-15.5 44
q2 20 20.5 36.5t45.5 16.5q29 0 48 -16.5t19 -37.5z" />
    <glyph glyph-name="Atilde" unicode="&#xc3;" horiz-adv-x="565" 
d="M379 708h-36q-15 0 -31.5 7.5t-32 16t-29 16t-23.5 7.5q-8 0 -19 -9t-22.5 -21t-21 -23.5t-15.5 -15.5l-46 37l97 117h36q16 0 29 -7.5t26 -16t27.5 -16t33.5 -7.5q9 0 20 9t22 21t20.5 23t15.5 16l47 -40zM287 420l-78 -203h154zM446 0l-46 122h-228l-46 -122h-136
l236 584l-24 59h149l244 -643h-149z" />
    <glyph glyph-name="Acircumflex" unicode="&#xc2;" horiz-adv-x="565" 
d="M401 685l-118 81l-119 -81l-48 49l167 140l167 -140zM287 420l-78 -203h154zM446 0l-46 122h-228l-46 -122h-136l236 584l-24 59h149l244 -643h-149z" />
    <glyph glyph-name="Aacute" unicode="&#xc1;" horiz-adv-x="565" 
d="M287 420l-78 -203h154zM446 0l-46 122h-228l-46 -122h-136l236 584l-24 59h149l244 -643h-149zM248 682l-46 60l208 142l64 -84z" />
    <glyph glyph-name="Agrave" unicode="&#xc0;" horiz-adv-x="565" 
d="M287 420l-78 -203h154zM446 0l-46 122h-228l-46 -122h-136l236 584l-24 59h149l244 -643h-149zM309 681l-226 118l64 84l209 -142z" />
    <glyph glyph-name="mu" unicode="&#xb5;" horiz-adv-x="521" 
d="M515 0q-17 -5 -37 -9.5t-30 -4.5q-35 0 -58.5 12.5t-33.5 47.5q-14 -24 -42 -42t-57 -18q-19 0 -39.5 9.5t-28.5 24.5v-234h-125v661l127 25v-283q0 -72 15.5 -105.5t60.5 -33.5q29 0 47 9t30 24v365l125 24v-355q0 -32 13.5 -43.5t48.5 -11.5z" />
    <glyph glyph-name="mu" unicode="&#x3bc;" horiz-adv-x="521" 
d="M515 0q-17 -5 -37 -9.5t-30 -4.5q-35 0 -58.5 12.5t-33.5 47.5q-14 -24 -42 -42t-57 -18q-19 0 -39.5 9.5t-28.5 24.5v-234h-125v661l127 25v-283q0 -72 15.5 -105.5t60.5 -33.5q29 0 47 9t30 24v365l125 24v-355q0 -32 13.5 -43.5t48.5 -11.5z" />
    <glyph glyph-name="plusminus" unicode="&#xb1;" horiz-adv-x="560" 
d="M405 -121h-247l-147 -8l21 103l334 -3l179 3v-103zM397 218h-68v-184l-106 -20l8 165v39h-81l-147 -8l21 101h207v164l107 36l-9 -106v-94h58l160 3v-105z" />
    <glyph glyph-name="degree" unicode="&#xb0;" horiz-adv-x="300" 
d="M207 528q0 24 -14 41t-42 17q-29 0 -42.5 -17.5t-13.5 -40.5q0 -24 14.5 -40.5t41.5 -16.5q29 0 42.5 16t13.5 41zM283 528q0 -26 -9.5 -48.5t-27 -39.5t-42 -27t-53.5 -10t-53.5 10t-42 27t-27 39.5t-9.5 48.5t9.5 48.5t27 39.5t42 26.5t53.5 9.5t53.5 -9.5t42 -26.5
t27 -39.5t9.5 -48.5z" />
    <glyph glyph-name="registered" unicode="&#xae;" horiz-adv-x="700" 
d="M388 394q0 26 -20.5 35t-54.5 9v-103h42q19 8 26 22t7 37zM436 170l-96 112h-27v-113h-91v310q21 7 55.5 12.5t67.5 5.5q26 0 51 -6t44.5 -18.5t31.5 -31t12 -43.5q0 -16 -6.5 -30.5t-16.5 -25.5t-22 -19t-23 -12l136 -141h-116zM630 321q0 55 -22 103.5t-60.5 84.5
t-90 57t-109.5 21t-109 -21t-89.5 -57t-60.5 -84.5t-22 -103.5q0 -56 22 -104.5t60.5 -84.5t89.5 -57t109 -21t109.5 21t90 57t60.5 84.5t22 104.5zM692 321q0 -68 -27 -127t-73.5 -103t-109.5 -69.5t-134 -25.5t-133.5 25.5t-109 69.5t-73.5 103t-27 127q0 67 27 126.5
t73.5 103t109 69t133.5 25.5t134 -25.5t109.5 -69t73.5 -103t27 -126.5z" />
    <glyph glyph-name="logicalnot" unicode="&#xac;" horiz-adv-x="560" 
d="M424 62l5 134v36h-259l-147 -8l21 99h323l160 4v-245z" />
    <glyph glyph-name="copyright" unicode="&#xa9;" horiz-adv-x="700" 
d="M475 189q-23 -14 -54.5 -22.5t-64.5 -8.5q-40 0 -72 12.5t-54.5 34t-34.5 52t-12 66.5q0 39 13 70t36.5 53.5t55 34.5t68.5 12q33 0 64.5 -9t54.5 -21v-86q-35 23 -59.5 31.5t-50.5 8.5q-37 0 -61 -23.5t-24 -66.5t23.5 -68.5t61.5 -25.5q13 0 25 1.5t24.5 6t27 12.5
t33.5 21v-85zM630 321q0 55 -22 103.5t-60.5 84.5t-90 57t-109.5 21t-109 -21t-89.5 -57t-60.5 -84.5t-22 -103.5q0 -56 22 -104.5t60.5 -84.5t89.5 -57t109 -21t109.5 21t90 57t60.5 84.5t22 104.5zM692 321q0 -68 -27 -127t-73.5 -103t-109.5 -69.5t-134 -25.5
t-133.5 25.5t-109 69.5t-73.5 103t-27 127q0 67 27 126.5t73.5 103t109 69t133.5 25.5t134 -25.5t109.5 -69t73.5 -103t27 -126.5z" />
    <glyph glyph-name="quotedbl" unicode="&#x22;" horiz-adv-x="407" 
d="M91 388l-79 30l99 239l109 -40zM261 388l-79 30l99 239l109 -40z" />
    <glyph glyph-name="exclam" unicode="!" horiz-adv-x="306" 
d="M236 63q0 -16 -7 -30t-19 -24.5t-27.5 -16.5t-32.5 -6q-35 0 -58 22.5t-23 53.5q0 33 25 55t61 22q34 0 57.5 -22t23.5 -54zM204 228l-111 -21l-14 434h159z" />
    <glyph glyph-name="Lslash" unicode="&#x141;" horiz-adv-x="442" 
d="M37 214l-45 78l82 54v296h137v-206l63 42l45 -78l-54 -36l-54 -36v-216h231l-42 -112h-326v238z" />
    <glyph glyph-name="lslash" unicode="&#x142;" horiz-adv-x="259" 
d="M193 0h-127v248l-40 -27l-36 72l76 52v331l127 43v-287l39 27l37 -73l-76 -52v-334z" />
    <glyph glyph-name="zcaron" unicode="&#x17e;" horiz-adv-x="423" 
d="M392 0h-365v61l211 294h-214l31 100h343v-69l-209 -285h226zM223 519l-167 140l49 49l118 -81l118 81l49 -49z" />
    <glyph glyph-name="Zcaron" unicode="&#x17d;" horiz-adv-x="540" 
d="M495 0h-489l304 533h-274v109h489l-309 -527h318zM281 682l-167 140l49 49l118 -81l118 81l49 -49z" />
    <glyph glyph-name="scaron" unicode="&#x161;" horiz-adv-x="426" 
d="M388 134q0 -72 -50.5 -110t-139.5 -38q-35 0 -72 6t-85 24l33 97q29 -16 58.5 -26t61.5 -10q27 0 45 10t18 33q0 26 -12.5 35.5t-34.5 16.5l-64 21q-48 16 -75 47.5t-27 83.5q0 40 17 68.5t45 46.5t64 26t74 8q47 0 81.5 -10t55.5 -18l-33 -92q-20 11 -46.5 21.5
t-58.5 10.5q-14 0 -28 -2t-25 -8t-18 -16.5t-7 -26.5q0 -19 17.5 -28t38.5 -16l59 -18q16 -5 35 -15t35.5 -26.5t27 -40t10.5 -54.5zM233 519l-167 140l49 49l118 -81l118 81l49 -49z" />
    <glyph glyph-name="Scaron" unicode="&#x160;" horiz-adv-x="494" 
d="M458 183q0 -44 -17.5 -80t-48.5 -62t-72 -40t-89 -14q-46 0 -93 4t-92 20l-13 138q37 -23 84.5 -38.5t107.5 -15.5q19 0 36 6t30 16.5t20 24t7 28.5q0 29 -16.5 45.5t-47.5 30.5l-85 40q-68 32 -97 74t-29 96q0 45 17.5 81t49 61.5t75 39t94.5 13.5q21 0 44 -3.5
t44.5 -8.5t40 -11.5t31.5 -13.5v-130q-25 19 -45.5 31t-39.5 18.5t-37.5 8.5t-37.5 2q-44 0 -72 -19.5t-28 -52.5q0 -28 19 -47.5t48 -32.5l98 -45q22 -10 42.5 -25.5t36.5 -36t25.5 -46.5t9.5 -56zM261 682l-167 140l49 49l118 -81l118 81l49 -49z" />
    <glyph glyph-name="thorn" unicode="&#xfe;" horiz-adv-x="537" 
d="M379 216q0 34 -7.5 64t-24 52.5t-43 35.5t-63.5 13q-17 0 -27 -2.5t-21 -7.5v-224q0 -42 20.5 -62t54.5 -20q21 0 41 10.5t35.5 30t25 47.5t9.5 63zM507 240q0 -58 -18.5 -105t-50.5 -80t-77 -51t-97 -18q-20 0 -34.5 3t-36.5 11v-195l-127 -39v905l127 37v-292
q29 31 60.5 43.5t61.5 12.5q43 0 78.5 -16t60.5 -46t39 -73t14 -97z" />
    <glyph glyph-name="yacute" unicode="&#xfd;" horiz-adv-x="429" 
d="M259 0q-16 -42 -34.5 -80.5t-44 -68t-60.5 -47t-84 -17.5l-36 126h52q22 0 40 1.5t31.5 7.5t23.5 18t16 34l-167 481h134l96 -288l97 288h112zM237 506l-58 41l147 214l80 -60z" />
    <glyph glyph-name="eth" unicode="&#xf0;" horiz-adv-x="514" 
d="M122 484l-24 40l127 76q-47 31 -108 31h-47l35 76h30q56 0 101.5 -13t81.5 -37l44 26q19 11 43 26l24 -40l-71 -43q66 -62 96 -158.5t30 -209.5q0 -41 -12.5 -88.5t-41 -88t-73.5 -67.5t-109 -27q-109 0 -163.5 61t-54.5 174q0 52 19 94.5t51.5 73t75 47t90.5 16.5
q34 0 63 -8q-11 36 -27.5 67.5t-39.5 55.5zM350 348q-16 11 -34.5 17.5t-42.5 6.5q-48 0 -78.5 -39t-30.5 -114q0 -77 26.5 -113.5t60.5 -36.5q53 0 78.5 52.5t25.5 137.5q0 22 -1.5 44t-3.5 45z" />
    <glyph glyph-name="Thorn" unicode="&#xde;" horiz-adv-x="557" 
d="M211 0h-137v642h137v-93q31 3 66 3q124 0 192 -53t68 -158q0 -45 -16 -83t-43 -65.5t-64 -43t-79 -15.5q-16 0 -38 4t-34 10v63h9q67 0 93.5 33.5t26.5 97.5q0 57 -31.5 80t-100.5 23h-49v-445z" />
    <glyph glyph-name="Yacute" unicode="&#xdd;" horiz-adv-x="544" 
d="M333 262v-262h-137v271l-210 371h155l140 -250l139 250h138zM267 684l-47 60l209 142l64 -84z" />
    <glyph glyph-name="multiply" unicode="&#xd7;" horiz-adv-x="560" 
d="M454 344l-97 -97l41 -41l115 -111l-73 -74l-99 113l-49 48l-148 -148l-89 61l93 82l75 75l-58 57l-109 99l86 54l146 -146l146 147l99 -51z" />
    <glyph glyph-name="Eth" unicode="&#xd0;" horiz-adv-x="658" 
d="M5 281l23 90h46v259q26 4 50 8t49 7t51.5 5t58.5 2q82 0 147 -22t110.5 -64.5t69.5 -104.5t24 -143q0 -73 -25 -134t-71 -104.5t-111 -68t-145 -24.5q-60 0 -109.5 8.5t-98.5 20.5v265h-69zM328 371l-32 -90h-85v-176l34 -6t37 -3q49 0 87.5 17t65.5 47t41 70t14 87
q0 109 -60 168.5t-172 59.5h-47v-174h117z" />
    <glyph glyph-name="brokenbar" unicode="&#xa6;" horiz-adv-x="369" 
d="M126 -302v382h112v-382h-112zM126 375v343h112v-343h-112z" />
    <glyph glyph-name="minus" unicode="&#x2212;" horiz-adv-x="560" 
d="M377 212h-207l-147 -8l21 99h323l160 4v-105z" />
    <glyph glyph-name="threesuperior" unicode="&#xb3;" horiz-adv-x="350" 
d="M290 389q0 -29 -12.5 -50.5t-34 -36t-50 -21.5t-59.5 -7q-15 0 -37 2t-45 13v39h70q71 0 71 54q0 14 -12.5 27t-50.5 13h-51l16 65h68q14 10 22.5 23.5t8.5 32.5q0 11 -10 19t-36 8q-10 0 -33.5 -2.5t-51.5 -15.5l17 83q17 7 42.5 12.5t50.5 5.5q30 0 51 -7t34 -18.5
t19 -27t6 -32.5q0 -15 -7 -28.5t-17.5 -25t-22.5 -21t-22 -15.5q32 -5 54 -28.5t22 -60.5z" />
    <glyph glyph-name="twosuperior" unicode="&#xb2;" horiz-adv-x="350" 
d="M304 278h-240l-24 45q10 9 27.5 23.5t36 31t35.5 33t28 30.5q14 17 22.5 35t8.5 38q0 50 -53 50q-17 0 -37.5 -4t-48.5 -17l22 94q12 4 21 6.5t18 4.5t18.5 3t22.5 1q60 0 98 -32.5t38 -88.5q0 -30 -13.5 -55t-33.5 -46t-45 -38.5t-47 -33.5h164z" />
    <glyph glyph-name="onesuperior" unicode="&#xb9;" horiz-adv-x="350" 
d="M141 278v255l-87 -19v55l182 90v-381h-95z" />
    <glyph glyph-name="threequarters" unicode="&#xbe;" horiz-adv-x="640" 
d="M455 269l-81 -126h81v126zM584 69h-32v-69h-97v69h-157l-13 56l169 233l98 19v-234h51zM169 75l-40 28l329 466l40 -28zM250 392q0 -29 -12.5 -51t-34 -37t-50 -22.5t-59.5 -7.5q-15 0 -32 2t-40 13v39h60q71 0 71 57q0 14 -12.5 27t-50.5 13h-41l16 65h58q14 10 22.5 22
t8.5 31q0 11 -10 19t-36 8q-10 0 -28.5 -2.5t-46.5 -15.5l17 83q17 7 37.5 12.5t45.5 5.5q30 0 51 -7t34 -18.5t19 -27t6 -32.5q0 -15 -7 -28t-17.5 -24t-22.5 -20t-22 -15q32 -5 54 -28.5t22 -60.5z" />
    <glyph glyph-name="onehalf" unicode="&#xbd;" horiz-adv-x="640" 
d="M579 0h-220l-24 45q10 9 26 23.5t32.5 31t32 33t26.5 30.5q14 17 22.5 35t8.5 38q0 27 -15 39t-41 12q-17 0 -33.5 -4.5t-44.5 -16.5l22 93q12 4 20 6.5t16 4.5t17 3t22 1q30 0 55 -8.5t43 -24t28.5 -38t10.5 -49.5q0 -31 -13.5 -55.5t-34 -45.5t-45.5 -38.5t-47 -33.5
h154zM139 75l-40 28l329 466l40 -28zM91 278v255l-77 -9v45l172 90v-381h-95z" />
    <glyph glyph-name="onequarter" unicode="&#xbc;" horiz-adv-x="640" 
d="M445 269l-81 -126h81v126zM574 69h-32v-69h-97v69h-157l-13 56l169 233l98 19v-234h51zM159 75l-40 28l329 466l40 -28zM101 278v255l-77 -9v45l172 90v-381h-95z" />
    </font>
</defs>
</svg>
